<svg width="23" height="23" viewBox="0 0 23 23" fill="none" xmlns="http://www.w3.org/2000/svg">
<path d="M11.6244 2.47934C9.53677 2.47934 5.98345 2.18601 5.90734 1.08883C5.89991 0.978369 5.9621 0.875333 6.06328 0.829849C7.30527 0.279401 8.63173 0 10.0046 0H13.2451C14.6198 0 15.9454 0.279401 17.1864 0.829849C17.2876 0.874405 17.3498 0.978369 17.3424 1.08883C17.2653 2.18601 13.712 2.47934 11.6244 2.47934Z" fill="#C6C6C6"/>
<path d="M5.6966 22.302C5.62977 22.302 5.56386 22.2769 5.51374 22.2286C5.43762 22.1553 5.41256 22.043 5.45062 21.9446C6.12266 20.2069 5.99271 19.6119 5.85626 19.4114C5.80799 19.3418 5.71609 19.249 5.46547 19.249C5.17957 19.249 4.77393 19.3733 4.29217 19.6101C4.25504 19.6277 4.21605 19.637 4.17614 19.637C4.11395 19.637 4.05268 19.6156 4.00441 19.5729C3.92459 19.5042 3.89395 19.3947 3.92551 19.2935C4.08424 18.7951 4.20584 18.2474 4.28846 17.6645C3.10773 16.8095 2.12101 15.6873 1.42854 14.4119C1.01454 13.6526 0.706368 12.8459 0.510509 12.0152C0.481734 11.8908 0.545782 11.7636 0.662741 11.7135C0.696158 11.6986 0.73143 11.6921 0.766704 11.6921C0.85303 11.6921 0.936573 11.7348 0.986698 11.811C1.17606 12.0978 1.37656 12.379 1.58263 12.6473C1.62904 12.7086 1.67453 12.767 1.72279 12.8246C1.81655 12.9443 1.9103 13.0576 2.00498 13.168C2.09223 13.2711 2.16092 13.35 2.22404 13.4187C2.29459 13.4976 2.36328 13.5737 2.43476 13.6479C2.4394 13.6526 2.44404 13.6582 2.44868 13.6637C2.45332 13.6684 2.45796 13.673 2.4626 13.6777C2.5248 13.7445 2.59905 13.8225 2.67703 13.8967C2.67981 13.8995 2.6826 13.9023 2.68538 13.9051C2.76243 13.9858 2.84504 14.0638 2.91466 14.1297C2.9852 14.1993 3.05761 14.2662 3.15322 14.3516C3.2349 14.4249 3.31751 14.4954 3.3992 14.5651C3.46046 14.618 3.52173 14.669 3.58206 14.7182C3.62476 14.7535 3.66375 14.785 3.70274 14.8147C3.70552 14.8166 3.70738 14.8185 3.71016 14.8203C3.74358 14.8482 3.777 14.8751 3.81041 14.8992C3.8132 14.9011 3.81598 14.9029 3.81877 14.9057C3.87168 14.9475 3.92551 14.9883 3.97935 15.0264C3.98306 15.0292 3.98678 15.032 3.99049 15.0347C4.0072 15.0487 4.02484 15.0617 4.04154 15.0728C4.04711 15.0765 4.05268 15.0802 4.05732 15.0839C4.13715 15.1443 4.19842 15.1879 4.25504 15.226C4.25968 15.2297 4.26525 15.2334 4.26989 15.2371C4.28196 15.2464 4.2931 15.2538 4.30424 15.2603C4.31166 15.2649 4.32002 15.2696 4.32651 15.2752C4.4082 15.3346 4.48989 15.3875 4.56043 15.432C4.65511 15.4952 4.74515 15.5499 4.84076 15.6084C4.94472 15.6715 5.03476 15.7244 5.11738 15.7699C5.1248 15.7736 5.13223 15.7783 5.13873 15.7829L5.34851 15.8971C5.38285 15.9156 5.41627 15.9333 5.45062 15.95C5.45526 15.9518 5.4599 15.9546 5.46547 15.9574C5.54437 16.0001 5.61956 16.0372 5.69474 16.0716C5.69846 16.0734 5.70124 16.0744 5.70495 16.0762C5.769 16.1078 5.83305 16.1384 5.89896 16.1672C5.9463 16.1895 5.989 16.209 6.0317 16.2257C6.03727 16.2275 6.04191 16.2303 6.04748 16.2322C6.06418 16.2396 6.08089 16.247 6.0976 16.2545L6.12638 16.2674C6.1895 16.2944 6.25633 16.3222 6.32224 16.3491L6.37051 16.3677C6.44291 16.3955 6.51438 16.4234 6.58493 16.4494C6.65733 16.4763 6.72509 16.4986 6.79471 16.5218C6.86062 16.545 6.93024 16.5691 6.998 16.5886C7.0769 16.6137 7.14744 16.636 7.21985 16.6555C7.41292 16.7121 7.61435 16.7622 7.82506 16.8068C8.12674 16.8727 8.43492 16.9228 8.74216 16.9553C8.8322 16.9673 8.91668 16.9748 8.99929 16.9794C9.01043 16.9803 9.02157 16.9813 9.03178 16.9831C9.0392 16.9831 9.0522 16.9841 9.05963 16.985C9.11903 16.9896 9.17844 16.9924 9.23692 16.9961C9.2397 16.9961 9.25084 16.997 9.25363 16.997C9.2889 16.9998 9.32696 17.0017 9.36223 17.0026L9.37708 17.0035C9.40679 17.0045 9.43556 17.0063 9.46434 17.0063C9.46712 17.0063 9.47084 17.0063 9.47362 17.0063C9.56366 17.01 9.65463 17.011 9.74467 17.011H13.7287C13.8262 17.011 13.9218 17.0091 14.0174 17.0063C14.0192 17.0063 14.138 17.0017 14.138 17.0017C14.1501 17.0008 14.1631 17.0008 14.1752 16.9998C14.1826 16.9989 14.1909 16.998 14.1984 16.998C14.2457 16.9961 14.2921 16.9952 14.3395 16.9906C14.4425 16.9831 14.5381 16.9766 14.6337 16.9673C14.8147 16.9488 14.9967 16.9256 15.174 16.8977C15.4654 16.8504 15.7615 16.7873 16.053 16.7093C16.13 16.6917 16.1987 16.6712 16.2721 16.6499L16.2906 16.6443C16.3705 16.622 16.4475 16.5979 16.5236 16.5728C16.61 16.545 16.6953 16.5171 16.7798 16.4865C16.8374 16.467 16.8856 16.4503 16.9348 16.4308C16.9395 16.429 16.9441 16.4271 16.9488 16.4262C16.9989 16.4085 17.049 16.39 17.0991 16.3696C17.191 16.3334 17.2801 16.2972 17.3674 16.26C17.5438 16.183 17.6858 16.118 17.8148 16.0549C17.8779 16.0252 17.9364 15.9955 17.993 15.9667C18.0264 15.95 18.058 15.9342 18.0886 15.9175L18.148 15.8859C18.1982 15.859 18.2483 15.833 18.2975 15.8052C18.3801 15.7597 18.4599 15.7142 18.5388 15.6669C18.6094 15.6251 18.6771 15.5843 18.7431 15.5434C18.808 15.5044 18.8684 15.4654 18.9296 15.4246C18.9798 15.393 19.0225 15.3661 19.0661 15.3355C19.1227 15.2974 19.171 15.264 19.2192 15.2306C19.2777 15.1907 19.3353 15.1498 19.3965 15.1034C19.3993 15.1016 19.4021 15.0997 19.4049 15.0979C19.4699 15.0524 19.5348 15.0041 19.598 14.9549C19.6527 14.9141 19.7029 14.8751 19.753 14.8342C19.8077 14.7915 19.8597 14.7488 19.9117 14.7071C19.9795 14.6523 20.0407 14.6003 20.1048 14.5465C20.1493 14.5084 20.1967 14.4657 20.2431 14.424C20.244 14.423 20.2496 14.4184 20.2505 14.4175C20.2969 14.3775 20.3443 14.3348 20.3907 14.2921C20.4557 14.2346 20.5151 14.1789 20.5735 14.1223C20.6339 14.0647 20.6914 14.009 20.749 13.9515C20.8038 13.8986 20.8548 13.8475 20.9049 13.7937C21.1992 13.4929 21.4916 13.1606 21.7766 12.8032C21.8796 12.6742 21.9882 12.5303 22.1181 12.3521C22.1692 12.2825 22.249 12.2435 22.3307 12.2435C22.3697 12.2435 22.4105 12.2528 22.4477 12.2714C22.5628 12.328 22.6194 12.4598 22.5823 12.5833C22.3493 13.3574 22.0179 14.1019 21.5965 14.798C21.1899 15.4729 20.6998 16.0985 20.141 16.6573C18.2984 18.4999 15.8488 19.5144 13.2423 19.5144H10.0018C9.82171 19.5144 9.63699 19.5089 9.44856 19.4987C8.3653 20.9671 6.87268 21.8221 5.79871 22.2834C5.76715 22.2945 5.73187 22.302 5.6966 22.302Z" fill="#C6C6C6"/>
<path d="M9.74851 17.5373C9.65291 17.5373 9.55823 17.5354 9.46262 17.5327C9.42827 17.5327 9.393 17.5308 9.3568 17.5299H9.34752C9.30018 17.528 9.25562 17.5262 9.21292 17.5224C9.15073 17.5187 9.08946 17.5159 9.0282 17.5113C9.00407 17.5104 8.979 17.5085 8.95394 17.5048C8.86483 17.4983 8.77572 17.489 8.68568 17.4797C8.36079 17.4454 8.03405 17.3916 7.71473 17.3219C7.49288 17.2746 7.27846 17.2208 7.07889 17.1632C7.00092 17.1409 6.92387 17.1177 6.84683 17.0936C6.77164 17.0722 6.69274 17.0444 6.62591 17.0212C6.55722 16.9989 6.48203 16.9729 6.4087 16.946C6.33258 16.9191 6.25647 16.8894 6.18035 16.8597L6.13022 16.8402C6.05782 16.8114 5.9882 16.7817 5.91859 16.752L5.89074 16.7399C5.87124 16.7316 5.85175 16.7232 5.83226 16.7139C5.78213 16.6944 5.73201 16.6712 5.68281 16.648C5.61598 16.6183 5.54543 16.5858 5.47489 16.5506C5.39134 16.5134 5.30873 16.4717 5.2224 16.4253C5.18156 16.4058 5.14165 16.3844 5.1008 16.3621L4.86782 16.235C4.85946 16.2303 4.85203 16.2257 4.84368 16.2201C4.76014 16.1737 4.6701 16.1208 4.56892 16.0595C4.47146 16.0001 4.37306 15.9389 4.27745 15.8757C4.19948 15.8265 4.11501 15.7699 4.02961 15.7096C4.00455 15.6947 3.98134 15.678 3.95721 15.6604C3.89502 15.6186 3.82911 15.5713 3.74743 15.51C3.72143 15.4924 3.69637 15.4729 3.67038 15.4534C3.6119 15.4116 3.55342 15.368 3.4968 15.3225C3.45781 15.2937 3.41976 15.2631 3.38077 15.2306C3.33621 15.1963 3.29166 15.161 3.2471 15.1239C3.18584 15.0737 3.11993 15.019 3.05496 14.9633C2.97049 14.8909 2.88602 14.8185 2.80155 14.7424C2.71615 14.6644 2.63353 14.5883 2.55185 14.5103C2.47016 14.4342 2.38662 14.3525 2.30586 14.2699C2.23346 14.1993 2.15827 14.1223 2.08494 14.0443C2.06916 14.0295 2.05617 14.0155 2.04596 14.0025C1.97355 13.9264 1.90208 13.8485 1.83246 13.7705C1.76656 13.699 1.69323 13.6145 1.60319 13.5087C1.50479 13.3945 1.40547 13.2748 1.31172 13.1541C1.26345 13.0947 1.21332 13.0307 1.16505 12.9685C0.950631 12.6891 0.741776 12.3976 0.545917 12.0996C0.529209 12.0737 0.51714 12.0458 0.509714 12.0161C0.334276 11.2819 0.246094 10.5216 0.246094 9.75676C0.246094 7.15211 1.26066 4.70155 3.10322 2.85806C3.96185 1.99944 4.95785 1.31718 6.06246 0.830777C6.09588 0.815926 6.13208 0.808501 6.16828 0.808501C6.21562 0.808501 6.26296 0.821496 6.30473 0.846559C6.37807 0.891115 6.42541 0.96816 6.43098 1.05356C6.4319 1.05634 6.54422 1.35709 7.89017 1.63371C8.89546 1.84071 10.221 1.95488 11.6236 1.95488C13.0252 1.95488 14.3517 1.84071 15.357 1.63371C16.7029 1.35709 16.8152 1.05541 16.8162 1.05263C16.8217 0.967231 16.8691 0.890185 16.9424 0.84563C16.9842 0.820567 17.0306 0.807571 17.0779 0.807571C17.1141 0.807571 17.1503 0.814999 17.1847 0.829851C20.7176 2.39116 23.0001 5.89434 23.0001 9.75583C23.0001 10.7194 22.8599 11.6699 22.5843 12.5814C22.5759 12.6093 22.5629 12.6362 22.5453 12.6603C22.4107 12.846 22.2974 12.9945 22.1898 13.13C21.8927 13.5013 21.5892 13.8475 21.2856 14.1566C21.2337 14.2123 21.1761 14.269 21.1186 14.3246C21.0601 14.3831 20.9988 14.4425 20.9376 14.5001C20.8763 14.5595 20.8104 14.6198 20.7445 14.6783C20.6971 14.7229 20.6452 14.7693 20.5932 14.8138C20.544 14.8584 20.4948 14.902 20.4456 14.9447C20.3778 15.0023 20.3138 15.0552 20.2479 15.109C20.1894 15.1573 20.1346 15.2009 20.0799 15.2436C20.0279 15.2854 19.9731 15.3281 19.9165 15.3708C19.8506 15.4209 19.781 15.4738 19.7113 15.523C19.6436 15.5741 19.5805 15.6195 19.5164 15.6622C19.4672 15.6957 19.4171 15.7309 19.366 15.7653C19.3168 15.7987 19.2667 15.8321 19.2147 15.8646C19.1525 15.9054 19.0876 15.9481 19.0198 15.989C18.953 16.0308 18.8806 16.0744 18.8091 16.1171C18.7274 16.1663 18.6411 16.2155 18.5548 16.2637C18.5046 16.2925 18.4508 16.3204 18.3979 16.3491L18.3422 16.3788C18.3069 16.3983 18.2707 16.4169 18.2336 16.4355C18.1742 16.4661 18.1101 16.4977 18.0461 16.5283C17.9143 16.5942 17.7639 16.6629 17.5792 16.7427C17.4863 16.7836 17.3907 16.8216 17.2961 16.8587C17.2431 16.8801 17.1865 16.9014 17.1299 16.9209C17.0788 16.9414 17.025 16.9609 16.9572 16.9831C16.8728 17.0138 16.7809 17.0444 16.6871 17.0741C16.6036 17.101 16.52 17.127 16.4374 17.1502C16.3557 17.1744 16.2731 17.1966 16.1877 17.218C15.8833 17.2997 15.5695 17.3665 15.2595 17.4166C15.0711 17.4463 14.8798 17.4705 14.6896 17.49C14.5884 17.5002 14.4872 17.5076 14.386 17.5141C14.3377 17.5187 14.283 17.5206 14.2273 17.5224C14.2059 17.5243 14.1837 17.5252 14.1614 17.5262C14.1614 17.5262 14.0407 17.5308 14.0351 17.5308C13.9358 17.5345 13.8337 17.5354 13.7307 17.5354H9.74851V17.5373Z" fill="#C6C6C6"/>
<path d="M2.82844 23C2.5546 23 2.33275 22.9684 2.16753 22.9053C2.00787 22.845 1.89369 22.7011 1.87049 22.5312C1.84728 22.3604 1.91968 22.1915 2.05892 22.0903C2.89991 21.4786 3.52833 20.5374 3.92469 19.2935C3.94604 19.2248 3.99524 19.1691 4.05928 19.1376C4.61994 18.8619 5.09335 18.7227 5.46372 18.7227C5.92412 18.7227 6.1664 18.9352 6.28892 19.1144C6.64166 19.6286 6.52748 20.6172 5.94083 22.1349C5.91577 22.2008 5.86472 22.2537 5.79974 22.2815C4.75175 22.7308 3.64065 23 2.82844 23Z" fill="#C6C6C6"/>
<path d="M17.0789 1.07027C17.0343 1.70426 14.6079 2.21665 11.6245 2.21665C8.64115 2.21665 6.21379 1.70519 6.17017 1.07027C7.34346 0.549526 8.64115 0.262698 10.0047 0.262698H13.2452C14.6097 0.261769 15.9074 0.549526 17.0789 1.07027Z" fill="#EDEDED"/>
<path d="M22.3327 12.5044C22.1034 13.2674 21.7785 13.9905 21.3738 14.6588C20.9756 15.3188 20.4994 15.9259 19.9573 16.468C18.2401 18.1852 15.8666 19.248 13.2443 19.248H10.0038C9.77451 19.248 9.54616 19.2397 9.32153 19.2239C8.37287 20.5671 6.99535 21.4805 5.69674 22.0383C7.08447 18.4507 5.46932 18.7375 4.17628 19.3724C4.36657 18.7737 4.49281 18.1518 4.57078 17.541C3.365 16.6972 2.36528 15.5843 1.65982 14.2847C1.26531 13.5607 0.960848 12.7782 0.766846 11.9539C0.960848 12.2482 1.16321 12.5322 1.37392 12.806C1.42126 12.8692 1.46953 12.9304 1.52058 12.9917C1.61248 13.1087 1.70716 13.2247 1.80648 13.3389C1.87981 13.4252 1.95407 13.5124 2.03111 13.596C2.10073 13.674 2.17221 13.7529 2.24554 13.829C2.25203 13.8373 2.26039 13.8475 2.2706 13.8559C2.34393 13.9339 2.41726 14.0109 2.49523 14.0852C2.57135 14.165 2.65303 14.243 2.73472 14.32C2.81455 14.398 2.89624 14.4732 2.97792 14.5465C3.06146 14.6217 3.145 14.6932 3.22762 14.7637C3.29074 14.8185 3.35386 14.8705 3.41605 14.9215C3.45875 14.9568 3.50145 14.9911 3.54322 15.0236C3.58035 15.0543 3.61841 15.0849 3.65554 15.1118C3.71123 15.1564 3.76971 15.2 3.82726 15.2408C3.8514 15.2594 3.8746 15.278 3.89874 15.2937C3.96836 15.3466 4.03797 15.3977 4.10945 15.445C4.13173 15.4617 4.15215 15.4757 4.17257 15.4877C4.25425 15.5471 4.3378 15.6019 4.42041 15.6548C4.51416 15.7179 4.60884 15.7755 4.70445 15.833C4.80006 15.8906 4.89474 15.9472 4.99035 16.0001C4.99221 16.002 4.99406 16.0038 4.99406 16.0038C5.06183 16.041 5.13144 16.079 5.20013 16.1162C5.24747 16.1412 5.29389 16.1672 5.34123 16.1895C5.42291 16.234 5.5046 16.2749 5.58814 16.312C5.6559 16.3464 5.72459 16.3779 5.79421 16.4086C5.84155 16.4308 5.88982 16.4531 5.93716 16.4717C5.96593 16.4856 5.99471 16.4967 6.02256 16.5088C6.09032 16.5376 6.15901 16.5664 6.22677 16.5942C6.31867 16.6295 6.40871 16.6657 6.49874 16.6982C6.57208 16.7251 6.64355 16.7492 6.71595 16.7734C6.78743 16.7984 6.85705 16.8226 6.92852 16.843C7.00371 16.8671 7.07797 16.8903 7.15501 16.9107C7.35922 16.9701 7.56622 17.0212 7.77415 17.0658C8.08511 17.1335 8.39978 17.1846 8.71817 17.2189C8.80821 17.231 8.89825 17.2393 8.98829 17.244C9.00686 17.2477 9.02542 17.2486 9.04306 17.2486C9.10803 17.2533 9.17209 17.257 9.23706 17.2607C9.2779 17.2644 9.3206 17.2653 9.36145 17.2672C9.39858 17.269 9.43478 17.2709 9.47005 17.2709C9.5638 17.2746 9.65756 17.2755 9.75038 17.2755H13.7344C13.8346 17.2755 13.933 17.2737 14.0324 17.2709H14.0389C14.0676 17.269 14.0964 17.269 14.1252 17.2672C14.154 17.2653 14.1827 17.2653 14.2115 17.2625C14.2644 17.2607 14.3173 17.2588 14.3693 17.2542C14.4677 17.2477 14.5661 17.2403 14.6654 17.2301C14.8511 17.2115 15.0358 17.1874 15.2196 17.1586C15.5259 17.1094 15.8267 17.0444 16.1256 16.9646C16.2072 16.946 16.2871 16.9219 16.3687 16.8987C16.4486 16.8764 16.5284 16.8513 16.6082 16.8253C16.6983 16.7966 16.7865 16.7678 16.8756 16.7353C16.9313 16.7167 16.9842 16.6982 17.0389 16.6759C17.0937 16.6573 17.1475 16.6369 17.2023 16.6146C17.2942 16.5794 17.3861 16.5413 17.4761 16.5023C17.6293 16.4364 17.7843 16.3659 17.9356 16.2916C17.9969 16.2628 18.0582 16.2322 18.1176 16.2016C18.1519 16.1849 18.1853 16.1672 18.2197 16.1486C18.2893 16.1115 18.3608 16.0735 18.4304 16.0345C18.5139 15.989 18.5975 15.9407 18.6782 15.8915C18.7478 15.8507 18.8175 15.808 18.8852 15.7653C18.9502 15.7263 19.0124 15.6855 19.0774 15.6428C19.1266 15.6121 19.1739 15.5815 19.2222 15.5471C19.2732 15.5128 19.3224 15.4794 19.3716 15.445C19.4347 15.4023 19.496 15.3587 19.5591 15.3104C19.6269 15.2631 19.6956 15.212 19.7615 15.161C19.8162 15.1202 19.8682 15.0793 19.9211 15.0366C19.9759 14.9939 20.0297 14.9503 20.0845 14.9057C20.1495 14.8528 20.2117 14.7999 20.2767 14.7461C20.3258 14.7034 20.375 14.6597 20.4242 14.6152C20.4734 14.5725 20.5226 14.5289 20.5718 14.4825C20.635 14.4268 20.6981 14.3683 20.7593 14.3089C20.8187 14.2532 20.8782 14.1947 20.9376 14.1353C20.9923 14.0824 21.0462 14.0285 21.0991 13.9719C21.4082 13.6554 21.7024 13.3194 21.9846 12.9657C22.1034 12.8163 22.2195 12.6612 22.3327 12.5044Z" fill="url(#paint0_linear_435_89)"/>
<path d="M22.7374 9.7549C22.7374 10.7119 22.5963 11.6337 22.3327 12.5044C22.2185 12.6612 22.1034 12.8153 21.9837 12.9648C21.7015 13.3184 21.4072 13.6554 21.0981 13.971C21.0452 14.0267 20.9914 14.0814 20.9366 14.1343C20.8772 14.1938 20.8178 14.2513 20.7584 14.3079C20.6971 14.3673 20.634 14.4249 20.5709 14.4815C20.5217 14.527 20.4725 14.5716 20.4233 14.6143C20.3741 14.6588 20.3249 14.7024 20.2757 14.7451C20.2107 14.7999 20.1485 14.8519 20.0836 14.9048C20.0288 14.9493 19.975 14.993 19.9202 15.0357C19.8673 15.0784 19.8144 15.1192 19.7605 15.1601C19.6946 15.2111 19.6259 15.2622 19.5582 15.3095C19.4951 15.3568 19.4338 15.4014 19.3707 15.4441C19.3215 15.4784 19.2723 15.5119 19.2212 15.5462C19.1739 15.5787 19.1256 15.6112 19.0764 15.6418C19.0115 15.6845 18.9493 15.7254 18.8843 15.7643C18.8165 15.807 18.7469 15.8497 18.6773 15.8906C18.5956 15.9398 18.5121 15.9871 18.4294 16.0335C18.3598 16.0725 18.2883 16.1096 18.2187 16.1477C18.1844 16.1663 18.151 16.183 18.1166 16.2006C18.0572 16.2313 17.996 16.2619 17.9347 16.2907C17.7834 16.3658 17.6284 16.4355 17.4752 16.5014C17.3852 16.5404 17.2933 16.5775 17.2014 16.6137C17.1466 16.636 17.0928 16.6564 17.038 16.6749C16.9832 16.6972 16.9313 16.7158 16.8746 16.7344C16.7865 16.7668 16.6973 16.7956 16.6073 16.8244C16.5275 16.8495 16.4476 16.8755 16.3678 16.8977C16.2861 16.9219 16.2063 16.9432 16.1246 16.9636C15.8257 17.0435 15.524 17.1084 15.2187 17.1576C15.0349 17.1864 14.8492 17.2105 14.6645 17.2291C14.5661 17.2393 14.4677 17.2458 14.3684 17.2532C14.3155 17.2579 14.2626 17.2597 14.2106 17.2616C14.1818 17.2653 14.153 17.2653 14.1243 17.2662C14.0955 17.2672 14.0667 17.2681 14.0379 17.27H14.0314C13.933 17.2737 13.8346 17.2746 13.7335 17.2746H9.74945C9.65569 17.2746 9.56194 17.2727 9.46912 17.27C9.43384 17.27 9.39764 17.2681 9.36051 17.2662C9.31967 17.2644 9.27697 17.2625 9.23613 17.2597C9.17115 17.256 9.1071 17.2532 9.04213 17.2477C9.02542 17.2477 9.00685 17.2458 8.98736 17.243C8.89732 17.2365 8.80728 17.2282 8.71724 17.218C8.39885 17.1836 8.08511 17.1326 7.77322 17.0648C7.56622 17.0203 7.35829 16.9692 7.15408 16.9098C7.07796 16.8875 7.00278 16.8652 6.92759 16.842C6.85611 16.8216 6.78649 16.7975 6.71502 16.7724C6.64169 16.7483 6.56836 16.7232 6.49781 16.6972C6.40777 16.6647 6.31773 16.6295 6.22584 16.5933C6.15807 16.5663 6.08938 16.5376 6.02162 16.5079C5.9947 16.4958 5.96593 16.4837 5.93622 16.4707C5.88888 16.4522 5.84062 16.4299 5.79328 16.4076C5.72366 16.377 5.6559 16.3445 5.58721 16.3111C5.50366 16.2739 5.42198 16.2331 5.34029 16.1886C5.29295 16.1663 5.24654 16.1412 5.1992 16.1152C5.13144 16.0781 5.06182 16.04 4.99313 16.0029C4.99313 16.0029 4.99127 16.001 4.98942 15.9992C4.89381 15.9463 4.79913 15.8906 4.70352 15.8321C4.60791 15.7746 4.51323 15.7151 4.41948 15.6539C4.33593 15.601 4.25239 15.5453 4.17164 15.4868C4.15121 15.4747 4.13079 15.4617 4.10851 15.4441C4.03704 15.3968 3.96742 15.3457 3.8978 15.2928C3.87367 15.2779 3.85046 15.2585 3.82633 15.2399C3.76878 15.199 3.7103 15.1545 3.6546 15.1109C3.61747 15.0839 3.57942 15.0533 3.54229 15.0227C3.49959 14.9902 3.45689 14.9568 3.41512 14.9206C3.352 14.8695 3.28888 14.8166 3.22668 14.7628C3.14314 14.6913 3.0596 14.6198 2.97699 14.5456C2.8953 14.4704 2.81362 14.3961 2.73379 14.3191C2.6521 14.243 2.57227 14.1641 2.4943 14.0842C2.41818 14.009 2.343 13.9329 2.26967 13.8549C2.25945 13.8466 2.2511 13.8364 2.2446 13.828C2.17127 13.7519 2.0998 13.673 2.03018 13.595C1.95406 13.5115 1.87888 13.4252 1.80554 13.3379C1.70715 13.2237 1.61154 13.1086 1.51965 12.9908C1.47045 12.9295 1.42125 12.8664 1.37298 12.8051C1.16227 12.5313 0.959915 12.2472 0.765913 11.953C0.597901 11.2475 0.508789 10.5114 0.508789 9.75397C0.508789 7.13168 1.57163 4.76003 3.28888 3.04092C4.11223 2.21757 5.08595 1.54459 6.16736 1.06841C6.21191 1.70239 8.63834 2.21478 11.6217 2.21478C14.6051 2.21478 17.0324 1.70332 17.0761 1.06841C20.4122 2.54245 22.7374 5.8767 22.7374 9.7549Z" fill="url(#paint1_radial_435_89)"/>
<path d="M5.69678 22.0383C4.1856 22.6881 2.77745 22.8561 2.26228 22.6593C2.10912 22.6018 2.08406 22.3976 2.21494 22.302C3.19981 21.5863 3.80966 20.5234 4.17725 19.3724C5.46936 18.7384 7.0845 18.4507 5.69678 22.0383Z" fill="url(#paint2_linear_435_89)"/>
<path d="M18.1853 2.21571C18.1853 2.21571 18.8722 2.57959 19.146 2.94438" stroke="white" stroke-miterlimit="10" stroke-linecap="round"/>
<path d="M17.9143 2.0656C17.963 1.98125 17.892 1.84908 17.7557 1.77039C17.6194 1.69169 17.4694 1.69628 17.4207 1.78063C17.372 1.86498 17.443 1.99716 17.5793 2.07585C17.7156 2.15454 17.8656 2.14996 17.9143 2.0656Z" fill="white"/>
<path d="M7.92549 10.6442C8.42328 10.6442 8.82682 10.2406 8.82682 9.74283C8.82682 9.24504 8.42328 8.84151 7.92549 8.84151C7.42771 8.84151 7.02417 9.24504 7.02417 9.74283C7.02417 10.2406 7.42771 10.6442 7.92549 10.6442Z" fill="#4F4F4F"/>
<path d="M11.6247 10.6441C12.1225 10.6441 12.526 10.2406 12.526 9.74281C12.526 9.24503 12.1225 8.84149 11.6247 8.84149C11.1269 8.84149 10.7234 9.24503 10.7234 9.74281C10.7234 10.2406 11.1269 10.6441 11.6247 10.6441Z" fill="#4F4F4F"/>
<path d="M15.3237 10.6441C15.8215 10.6441 16.225 10.2406 16.225 9.74281C16.225 9.24503 15.8215 8.84149 15.3237 8.84149C14.8259 8.84149 14.4224 9.24503 14.4224 9.74281C14.4224 10.2406 14.8259 10.6441 15.3237 10.6441Z" fill="#4F4F4F"/>
<defs>
<linearGradient id="paint0_linear_435_89" x1="5.36517" y1="25.6669" x2="10.705" y2="14.1623" gradientUnits="userSpaceOnUse">
<stop offset="0.3281" stop-color="#C6C6C6"/>
<stop offset="0.5492" stop-color="#D3D3D3"/>
<stop offset="0.6446" stop-color="#DADADA"/>
</linearGradient>
<radialGradient id="paint1_radial_435_89" cx="0" cy="0" r="1" gradientUnits="userSpaceOnUse" gradientTransform="translate(11.6243 9.17203) scale(16.9678 16.9678)">
<stop offset="0.1825" stop-color="#EDEDED"/>
<stop offset="0.5832" stop-color="#E0E0E0"/>
<stop offset="0.7326" stop-color="#DADADA"/>
</radialGradient>
<linearGradient id="paint2_linear_435_89" x1="2.29952" y1="23.5347" x2="5.60348" y2="19.9904" gradientUnits="userSpaceOnUse">
<stop offset="0.2561" stop-color="#DADADA"/>
<stop offset="0.9383" stop-color="#EDEDED"/>
</linearGradient>
</defs>
</svg>
