<svg width="27" height="23" viewBox="0 0 27 23" fill="none" xmlns="http://www.w3.org/2000/svg">
<path d="M21.2168 20.5394C20.9448 21.9671 19.6966 23 18.2432 23H8.44218C6.9888 23 5.74057 21.9671 5.46863 20.5394L3.25806 8.93386L13.2607 1.53697L23.4278 8.93129L21.2168 20.5394Z" fill="#FFC800"/>
<path opacity="0.5" fill-rule="evenodd" clip-rule="evenodd" d="M10.7466 18.5655C10.7466 18.0259 11.184 17.5883 11.7237 17.5883H15.6322C16.1719 17.5883 16.6094 18.0259 16.6094 18.5655C16.6094 19.1052 16.1719 19.5427 15.6322 19.5427H11.7237C11.184 19.5427 10.7466 19.1052 10.7466 18.5655Z" fill="#945151"/>
<path d="M16.5386 12.3259C16.5386 14.0857 15.112 15.5122 13.3523 15.5122C11.5925 15.5122 10.166 14.0857 10.166 12.3259C10.166 10.5662 11.5925 9.13959 13.3523 9.13959C15.112 9.13959 16.5386 10.5662 16.5386 12.3259Z" fill="#945151"/>
<path d="M13.5066 0.000151193C13.9413 -0.00196491 14.3812 0.129563 14.7594 0.404098L26.1272 8.59949C27.0731 9.28681 27.2828 10.6108 26.5955 11.5567C25.9084 12.5024 24.585 12.7122 23.639 12.0256L13.499 4.71534L3.35986 12.0249L3.35906 12.0256C2.41317 12.7121 1.08974 12.5023 0.402652 11.5565C-0.284615 10.6106 -0.0749192 9.28663 0.871026 8.5994L0.872482 8.5983L12.2382 0.404446C12.6207 0.126742 13.067 -0.00509785 13.5066 0.000151193Z" fill="#FF4B4B"/>
</svg>
