<svg width="23" height="23" viewBox="0 0 23 23" fill="none" xmlns="http://www.w3.org/2000/svg">
<path d="M11.5 23C17.8513 23 23 17.8513 23 11.5C23 5.14873 17.8513 0 11.5 0C5.14873 0 0 5.14873 0 11.5C0 17.8513 5.14873 23 11.5 23Z" fill="#D93232"/>
<path d="M11.4997 4C11.1892 4 10.8914 4.12245 10.6719 4.3404C10.4523 4.55836 10.329 4.85397 10.329 5.16221V10.9732C10.329 11.2815 10.4523 11.5771 10.6719 11.795C10.8914 12.013 11.1892 12.1354 11.4997 12.1354C11.8102 12.1354 12.108 12.013 12.3275 11.795C12.5471 11.5771 12.6704 11.2815 12.6704 10.9732V5.16221C12.6704 4.85397 12.5471 4.55836 12.3275 4.3404C12.108 4.12245 11.8102 4 11.4997 4ZM7.31083 5.50738C7.14195 5.52856 6.98292 5.59801 6.85308 5.70728C5.9628 6.40402 5.24344 7.29228 4.74923 8.30511C4.25502 9.31794 3.99884 10.4289 4 11.5543C4 15.6558 7.36703 19 11.4997 19C15.6324 19 19 15.6558 19 11.5543C19 9.1875 17.8866 7.06996 16.1463 5.7067C16.0562 5.63516 15.9528 5.58193 15.842 5.55006C15.7312 5.51819 15.6152 5.5083 15.5005 5.52095C15.3858 5.53361 15.2748 5.56856 15.1737 5.62381C15.0727 5.67906 14.9836 5.75353 14.9115 5.84297C14.8394 5.9324 14.7858 6.03506 14.7537 6.14506C14.7216 6.25507 14.7117 6.37028 14.7244 6.48411C14.7372 6.59794 14.7724 6.70816 14.828 6.80848C14.8837 6.9088 14.9587 6.99726 15.0488 7.0688C15.7333 7.6023 16.2867 8.28337 16.667 9.06047C17.0473 9.83758 17.2446 10.6904 17.2439 11.5543C17.2458 12.3037 17.0984 13.046 16.8104 13.7387C16.5224 14.4314 16.0994 15.0607 15.5656 15.5906C15.0318 16.1205 14.3979 16.5405 13.7001 16.8264C13.0024 17.1123 12.2546 17.2585 11.4997 17.2567C10.7449 17.2585 9.99707 17.1123 9.29931 16.8264C8.60156 16.5405 7.96759 16.1205 7.43382 15.5906C6.90005 15.0607 6.47701 14.4314 6.18899 13.7387C5.90098 13.046 5.75366 12.3037 5.75552 11.5543C5.75502 10.6904 5.95238 9.83767 6.33267 9.06059C6.71295 8.28351 7.26622 7.60242 7.95064 7.0688C8.10566 6.95321 8.21778 6.78994 8.26952 6.60446C8.32125 6.41897 8.30969 6.2217 8.23664 6.04342C8.16359 5.86514 8.03315 5.71587 7.86568 5.61891C7.69821 5.52194 7.50311 5.48273 7.31083 5.50738Z" fill="white"/>
</svg>
