<svg width="23" height="23" viewBox="0 0 23 23" fill="none" xmlns="http://www.w3.org/2000/svg">
<path fill-rule="evenodd" clip-rule="evenodd" d="M16.0724 11.084C16.0724 10.8635 15.9849 10.6521 15.829 10.4962C15.6731 10.3403 15.4616 10.2527 15.2411 10.2527H3.07865L5.25222 8.39059C5.33519 8.31955 5.40336 8.23288 5.45282 8.1355C5.50229 8.03812 5.5321 7.93196 5.54054 7.82306C5.54898 7.71417 5.53589 7.60468 5.50201 7.50085C5.46814 7.39701 5.41414 7.30086 5.34311 7.2179C5.27208 7.13493 5.1854 7.06677 5.08803 7.0173C4.99065 6.96783 4.88449 6.93802 4.77559 6.92958C4.6667 6.92114 4.55721 6.93423 4.45337 6.96811C4.34954 7.00198 4.25339 7.05598 4.17042 7.12701L0.291019 10.4522C0.199759 10.5303 0.12649 10.6271 0.0762519 10.7362C0.0260139 10.8453 0 10.9639 0 11.084C0 11.2041 0.0260139 11.3227 0.0762519 11.4318C0.12649 11.5409 0.199759 11.6377 0.291019 11.7158L4.17042 15.041C4.33798 15.1844 4.55567 15.2555 4.77559 15.2384C4.99551 15.2214 5.19966 15.1177 5.34311 14.9501C5.48657 14.7825 5.55758 14.5649 5.54054 14.3449C5.52349 14.125 5.41978 13.9209 5.25222 13.7774L3.07976 11.9153H15.2411C15.4616 11.9153 15.6731 11.8277 15.829 11.6718C15.9849 11.5159 16.0724 11.3045 16.0724 11.084Z" fill="#D93232"/>
<path d="M8.59082 6.65041C8.59082 7.4285 8.59082 7.81755 8.77814 8.09798C8.85882 8.21855 8.96238 8.32211 9.08295 8.40279C9.36338 8.59011 9.75242 8.59011 10.5305 8.59011H15.2412C15.9027 8.59011 16.537 8.85286 17.0047 9.32056C17.4724 9.78825 17.7351 10.4226 17.7351 11.084C17.7351 11.7454 17.4724 12.3798 17.0047 12.8475C16.537 13.3152 15.9027 13.5779 15.2412 13.5779H10.5305C9.75242 13.5779 9.36338 13.5779 9.08295 13.7641C8.96227 13.8451 8.8587 13.9491 8.77814 14.07C8.59082 14.3505 8.59082 14.7395 8.59082 15.5176C8.59082 18.6522 8.59082 20.2206 9.5651 21.1937C10.5383 22.168 12.1056 22.168 15.2401 22.168H16.3485C19.4853 22.168 21.0515 22.168 22.0258 21.1937C23 20.2206 23 18.6522 23 15.5176V6.65041C23 3.51585 23 1.94746 22.0258 0.974284C21.0515 -6.60659e-08 19.4842 0 16.3496 0H15.2412C12.1056 0 10.5383 -6.60659e-08 9.5651 0.974284C8.59082 1.94746 8.59082 3.51585 8.59082 6.65041Z" fill="#D93232"/>
</svg>
