<svg width="26" height="26" viewBox="0 0 26 26" fill="none" xmlns="http://www.w3.org/2000/svg">
<path d="M13 25C19.6274 25 25 19.6274 25 13C25 6.37258 19.6274 1 13 1C6.37258 1 1 6.37258 1 13C1 19.6274 6.37258 25 13 25Z" fill="#D7524C" stroke="#D7524C" stroke-width="1.3913"/>
<path d="M15.8444 10.5455V9.27273C15.8444 8.93518 15.7133 8.61146 15.48 8.37277C15.2466 8.13409 14.93 8 14.6 8H10.2444C9.9144 8 9.59787 8.13409 9.36449 8.37277C9.13111 8.61146 9 8.93518 9 9.27273V16.9091C9 17.2466 9.13111 17.5704 9.36449 17.809C9.59787 18.0477 9.9144 18.1818 10.2444 18.1818H14.6C14.93 18.1818 15.2466 18.0477 15.48 17.809C15.7133 17.5704 15.8444 17.2466 15.8444 16.9091V15.6364" stroke="#F8F8F8" stroke-linecap="round" stroke-linejoin="round"/>
<path d="M12.7333 13.0909H20.1999M20.1999 13.0909L18.3333 11.1818M20.1999 13.0909L18.3333 15" stroke="#F8F8F8" stroke-linecap="round" stroke-linejoin="round"/>
</svg>
