<svg width="23" height="23" viewBox="0 0 23 23" fill="none" xmlns="http://www.w3.org/2000/svg">
<path d="M11.5 23C17.8513 23 23 17.8513 23 11.5C23 5.14873 17.8513 0 11.5 0C5.14873 0 0 5.14873 0 11.5C0 17.8513 5.14873 23 11.5 23Z" fill="#1CB0F6"/>
<path d="M6.65779 12.7106C7.32635 12.7106 7.86832 12.1686 7.86832 11.5C7.86832 10.8315 7.32635 10.2895 6.65779 10.2895C5.98924 10.2895 5.44727 10.8315 5.44727 11.5C5.44727 12.1686 5.98924 12.7106 6.65779 12.7106Z" fill="white"/>
<path d="M11.5 12.7106C12.1685 12.7106 12.7105 12.1686 12.7105 11.5C12.7105 10.8315 12.1685 10.2895 11.5 10.2895C10.8314 10.2895 10.2894 10.8315 10.2894 11.5C10.2894 12.1686 10.8314 12.7106 11.5 12.7106Z" fill="white"/>
<path d="M16.342 12.7106C17.0106 12.7106 17.5525 12.1686 17.5525 11.5C17.5525 10.8315 17.0106 10.2895 16.342 10.2895C15.6734 10.2895 15.1315 10.8315 15.1315 11.5C15.1315 12.1686 15.6734 12.7106 16.342 12.7106Z" fill="white"/>
</svg>
