<svg width="23" height="23" viewBox="0 0 23 23" fill="none" xmlns="http://www.w3.org/2000/svg">
<path d="M18.3034 1.80219H4.69751V11.9336H18.3034V1.80219Z" fill="#915D46"/>
<path d="M2.7478 4.38992H20.2518" stroke="#724533" stroke-width="3" stroke-miterlimit="10"/>
<path d="M2.7478 7.99309H20.2518" stroke="#724533" stroke-width="3" stroke-miterlimit="10"/>
<path d="M23 1.49156V21.5084C23 22.3321 22.319 23 21.479 23H1.52101C0.681049 23 0 22.3321 0 21.5084V1.49156C0 1.45022 0.00216198 1.40994 0.00540507 1.36965C0.0681048 0.603197 0.723209 0 1.52101 0H3.1112C3.98684 0 4.69708 0.696486 4.69708 1.55517V11.5011H18.3029V1.55517C18.3029 0.696486 19.0132 0 19.8888 0H21.4779C22.2757 0 22.9308 0.602137 22.9935 1.36965C22.9978 1.40994 23 1.45022 23 1.49156Z" fill="#FFD20D"/>
<path d="M20.9126 7.39429C21.4135 7.39429 21.8196 6.99607 21.8196 6.50486C21.8196 6.01364 21.4135 5.61543 20.9126 5.61543C20.4117 5.61543 20.0056 6.01364 20.0056 6.50486C20.0056 6.99607 20.4117 7.39429 20.9126 7.39429Z" fill="#F9B104"/>
<path d="M20.9126 14.005C21.4135 14.005 21.8196 13.6068 21.8196 13.1156C21.8196 12.6244 21.4135 12.2262 20.9126 12.2262C20.4117 12.2262 20.0056 12.6244 20.0056 13.1156C20.0056 13.6068 20.4117 14.005 20.9126 14.005Z" fill="#F9B104"/>
<path d="M20.9126 21.7237C21.4135 21.7237 21.8196 21.3255 21.8196 20.8343C21.8196 20.3431 21.4135 19.9448 20.9126 19.9448C20.4117 19.9448 20.0056 20.3431 20.0056 20.8343C20.0056 21.3255 20.4117 21.7237 20.9126 21.7237Z" fill="#F9B104"/>
<path d="M2.08618 7.39421C2.5871 7.39421 2.99317 6.996 2.99317 6.50478C2.99317 6.01356 2.5871 5.61536 2.08618 5.61536C1.58527 5.61536 1.1792 6.01356 1.1792 6.50478C1.1792 6.996 1.58527 7.39421 2.08618 7.39421Z" fill="#F9B104"/>
<path d="M2.08618 14.005C2.5871 14.005 2.99317 13.6068 2.99317 13.1156C2.99317 12.6244 2.5871 12.2262 2.08618 12.2262C1.58527 12.2262 1.1792 12.6244 1.1792 13.1156C1.1792 13.6068 1.58527 14.005 2.08618 14.005Z" fill="#F9B104"/>
<path d="M2.08618 21.7237C2.5871 21.7237 2.99317 21.3255 2.99317 20.8343C2.99317 20.3431 2.5871 19.9448 2.08618 19.9448C1.58527 19.9448 1.1792 20.3431 1.1792 20.8343C1.1792 21.3255 1.58527 21.7237 2.08618 21.7237Z" fill="#F9B104"/>
<path d="M18.3026 15.9302H4.69678V21.4342H18.3026V15.9302Z" fill="#603E32"/>
<path d="M4.69678 19.6215H18.3026" stroke="#492A21" stroke-width="3" stroke-miterlimit="10"/>
<path d="M12.9552 17.2426H10.0451C9.17592 17.2426 8.47217 16.5514 8.47217 15.7001V11.3357C8.47217 10.4834 9.177 9.79323 10.0451 9.79323H12.9552C13.8243 9.79323 14.5281 10.4844 14.5281 11.3357V15.7001C14.5281 16.5514 13.8243 17.2426 12.9552 17.2426Z" fill="#FFC103"/>
<path d="M11.5 14.021C12.3317 14.021 13.0059 13.3598 13.0059 12.5442C13.0059 11.7287 12.3317 11.0675 11.5 11.0675C10.6683 11.0675 9.99414 11.7287 9.99414 12.5442C9.99414 13.3598 10.6683 14.021 11.5 14.021Z" fill="#EA9D05"/>
<path d="M11.7739 15.8666H11.2269C10.9058 15.8666 10.6453 15.6111 10.6453 15.2963V13.5852C10.6453 13.122 11.0279 12.7467 11.5004 12.7467C11.9728 12.7467 12.3555 13.122 12.3555 13.5852V15.2963C12.3555 15.6111 12.0949 15.8666 11.7739 15.8666Z" fill="#EA9D05"/>
</svg>
