<svg width="26" height="26" viewBox="0 0 26 26" fill="none" xmlns="http://www.w3.org/2000/svg">
<path d="M23.6589 10.1837H22.2159C22.0389 9.58292 21.7975 9.00894 21.5078 8.47251L22.527 7.44792C23.0474 6.92222 23.0474 6.08002 22.527 5.55431L20.4403 3.47295C19.92 2.94725 19.0724 2.94725 18.5467 3.47295L17.5329 4.48681C16.9911 4.19714 16.4117 3.95574 15.8109 3.77872V2.33572C15.8109 1.6008 15.2155 1 14.4752 1H11.5248C10.7899 1 10.1891 1.6008 10.1891 2.33572V3.77872C9.58829 3.95574 9.0143 4.19714 8.46714 4.48681L7.45329 3.47295C6.93295 2.94725 6.08002 2.94725 5.55968 3.47295L3.47295 5.55431C2.95261 6.08002 2.95261 6.92222 3.47295 7.44792L4.49218 8.47251C4.2025 9.00894 3.96647 9.58292 3.78409 10.1837H2.34645C1.6008 10.1837 1 10.7792 1 11.5248V14.4752C1 15.2101 1.6008 15.8109 2.34645 15.8109H3.78409C3.96647 16.4117 4.2025 16.9857 4.49218 17.5221L3.47295 18.5413C2.95261 19.0671 2.95261 19.9146 3.47295 20.4403L5.55968 22.5217C6.08002 23.0474 6.93295 23.0474 7.45329 22.5217L8.46714 21.5025C9.0143 21.7975 9.58829 22.0335 10.1891 22.2159V23.6536C10.1891 24.3938 10.7899 24.9946 11.5248 24.9946H14.4752C15.2155 24.9946 15.8109 24.3938 15.8109 23.6536V22.2159C16.4117 22.0335 16.9911 21.7975 17.5329 21.5025L18.5467 22.5217C19.0724 23.0474 19.92 23.0474 20.4403 22.5217L22.527 20.4403C23.0474 19.9146 23.0474 19.0671 22.527 18.5413L21.5078 17.5221C21.7975 16.9857 22.0389 16.4117 22.2159 15.8109H23.6589C24.3992 15.8109 25 15.2101 25 14.4752V11.5248C25 10.7792 24.3992 10.1837 23.6589 10.1837ZM13 16.9428C10.8221 16.9428 9.05722 15.1779 9.05722 12.9946C9.05722 10.8167 10.8221 9.05185 13 9.05185C15.1779 9.05185 16.9481 10.8167 16.9481 12.9946C16.9481 15.1779 15.1779 16.9428 13 16.9428Z" fill="#DADADA" stroke="#969690" stroke-miterlimit="10" stroke-linecap="round" stroke-linejoin="round"/>
<path d="M17.7798 9.30398C18.5952 10.3607 19.0404 11.6589 19.0404 13C19.0404 16.3152 16.3153 19.0402 13.0002 19.0402C9.68504 19.0402 6.95996 16.3152 6.95996 13C6.95996 9.68484 9.68504 6.95976 13.0002 6.95976C13.6225 6.95976 14.2394 7.05632 14.8294 7.24408" stroke="#969690" stroke-miterlimit="10" stroke-linecap="round" stroke-linejoin="round"/>
<path d="M16.3635 8.05945L16.6371 8.27939" stroke="#969690" stroke-miterlimit="10" stroke-linecap="round" stroke-linejoin="round"/>
</svg>
