<svg width="24" height="26" viewBox="0 0 24 26" fill="none" xmlns="http://www.w3.org/2000/svg">
<path d="M23.7088 15.8103L22.1696 14.185C22.3662 13.0004 22.3412 11.7896 22.0957 10.6142L23.5979 8.98885C23.7146 8.85892 23.7925 8.69897 23.823 8.52708C23.8534 8.35518 23.8352 8.17819 23.7703 8.0161C23.1474 6.47638 22.2269 5.07466 21.0614 3.89119C20.9475 3.77732 20.8055 3.69567 20.6497 3.65458C20.494 3.61348 20.3301 3.6144 20.1749 3.65724L17.9093 4.23596C17.2117 3.73438 16.4548 3.32081 15.6559 3.00464L15.1019 0.886775C15.0607 0.715001 14.9698 0.559159 14.8406 0.438715C14.7114 0.318271 14.5496 0.238564 14.3754 0.20955C13.6081 0.0655694 12.8288 -0.00452581 12.0482 0.000226319C11.0714 0.00432413 10.099 0.132588 9.15459 0.381935C8.99698 0.421556 8.85306 0.503167 8.73814 0.618083C8.62322 0.732999 8.54161 0.876921 8.50199 1.03453L7.91096 3.21397C7.25023 3.50736 6.62279 3.87061 6.03935 4.29752L3.79836 3.74343C3.64101 3.7023 3.47546 3.70463 3.31934 3.75016C3.16321 3.7957 3.02237 3.88274 2.91181 4.00201C1.6876 5.2738 0.751156 6.79394 0.16597 8.45938C0.10922 8.62035 0.0975778 8.79379 0.132303 8.9609C0.167029 9.12802 0.246799 9.28245 0.36298 9.40749L1.91444 11.0205C1.83588 11.5381 1.79473 12.0608 1.79131 12.5843C1.79131 12.9537 1.79131 13.3231 1.85287 13.6925L0.239849 15.4902C0.131298 15.6097 0.0559818 15.7556 0.0214133 15.9133C-0.0131551 16.0711 -0.00576809 16.2351 0.0428377 16.3891C0.548835 18.0171 1.38742 19.5224 2.50547 20.8095C2.61792 20.9417 2.76536 21.0396 2.93087 21.0918C3.09639 21.1441 3.27328 21.1487 3.44127 21.105L5.55914 20.5632C6.30019 21.1877 7.13019 21.6981 8.02178 22.0778L8.63744 24.2818C8.68486 24.4416 8.77358 24.5861 8.89464 24.7006C9.01569 24.8152 9.16482 24.8958 9.32697 24.9344C10.2148 25.1351 11.1235 25.2385 12.0359 25.2422C12.7624 25.2349 13.4864 25.1647 14.203 25.0329C14.373 25.0029 14.5311 24.9258 14.6595 24.8105C14.788 24.6951 14.8815 24.5461 14.9295 24.3803L15.5082 22.2994C16.5713 21.9191 17.5622 21.3612 18.4387 20.6494L20.6058 21.142C20.7684 21.1797 20.9381 21.1721 21.0966 21.12C21.2551 21.0679 21.3963 20.9733 21.5047 20.8464C22.5841 19.6479 23.4204 18.2512 23.9673 16.7338C24.0116 16.5709 24.0109 16.399 23.9653 16.2365C23.9198 16.0739 23.8312 15.9266 23.7088 15.8103ZM12.1467 17.3741C11.5244 17.3858 10.9061 17.2735 10.3276 17.0438C9.74917 16.8141 9.2222 16.4717 8.77742 16.0363C8.33263 15.601 7.97891 15.0815 7.73687 14.5081C7.49482 13.9347 7.36928 13.3189 7.36757 12.6966C7.36585 12.0742 7.48799 11.4577 7.72687 10.883C7.96576 10.3083 8.31661 9.78685 8.75899 9.34907C9.20137 8.91129 9.72643 8.5659 10.3036 8.33304C10.8808 8.10018 11.4985 7.98449 12.1208 7.99271C13.365 7.98944 14.5596 8.48058 15.4417 9.35806C16.3238 10.2355 16.8212 11.4275 16.8245 12.6717C16.8277 13.9159 16.3366 15.1105 15.4591 15.9926C14.5816 16.8747 13.3897 17.3721 12.1455 17.3754" fill="#E9E9E9"/>
</svg>
