<svg width="26" height="23" viewBox="0 0 26 23" fill="none" xmlns="http://www.w3.org/2000/svg">
<path d="M24.353 20.2941V7.44118H1.35303V20.2941C1.35303 21.7885 2.52988 23 3.9816 23H21.7245C23.1762 23 24.353 21.7885 24.353 20.2941Z" fill="#A56644"/>
<path d="M0 2.70588C0 1.21146 1.21146 0 2.70588 0H8.79412V7.44118H0V2.70588Z" fill="#EA2B2B"/>
<path d="M0 7.44118H8.79412V7.77941C8.79412 10.2079 6.82552 12.1765 4.39706 12.1765C1.96863 12.1765 0 10.2079 0 7.77941V7.44118Z" fill="#FF4945"/>
<path d="M8.79419 7.44118H16.9118V7.77941C16.9118 10.2079 15.0946 12.1765 12.853 12.1765C10.6114 12.1765 8.79419 10.2079 8.79419 7.77941V7.44118Z" fill="#D0D0D0"/>
<path d="M16.9119 7.44118H25.706V7.77941C25.706 10.2079 23.7374 12.1765 21.3089 12.1765C18.8805 12.1765 16.9119 10.2079 16.9119 7.77941V7.44118Z" fill="#FF4945"/>
<path d="M8.79419 0H16.9118V7.44118H8.79419V0Z" fill="#D0D0D0"/>
<path d="M16.9119 0H23.0001C24.4945 0 25.706 1.21146 25.706 2.70588V7.44118H16.9119V0Z" fill="#EA2B2B"/>
<path d="M4.73511 16.2353C4.73511 15.4881 5.34082 14.8824 6.08805 14.8824H9.4704C10.2176 14.8824 10.8233 15.4881 10.8233 16.2353V23H4.73511V16.2353Z" fill="#B9E8FF"/>
<path d="M13.5293 16.2353C13.5293 15.4881 14.135 14.8824 14.8822 14.8824H20.294C21.0412 14.8824 21.6469 15.4881 21.6469 16.2353V18.9412C21.6469 19.6884 21.0412 20.2941 20.294 20.2941H14.8822C14.135 20.2941 13.5293 19.6884 13.5293 18.9412V16.2353Z" fill="#B9E8FF"/>
</svg>
