<svg width="21" height="29" viewBox="0 0 21 29" fill="none" xmlns="http://www.w3.org/2000/svg">
<path fill-rule="evenodd" clip-rule="evenodd" d="M13.3974 2.55023C13.2077 0.685106 10.8131 0.0434622 9.71625 1.56387L0.688841 14.0776C-0.146062 15.2349 0.435997 16.8698 1.81443 17.2391L6.94983 18.6151L7.70844 26.0748C7.89811 27.9399 10.2928 28.5816 11.3896 27.0611L20.417 14.5474C21.2519 13.3901 20.6699 11.7553 19.2914 11.3859L14.156 10.0099L13.3974 2.55023Z" fill="#FFD900"/>
<path d="M2.46035 15.7325C1.99335 15.6065 1.94825 14.9616 2.39316 14.7718L5.96228 13.2489C6.28453 13.1114 6.64621 13.3326 6.67064 13.6821L6.84785 16.2163C6.87229 16.5658 6.54491 16.8351 6.20666 16.7438L2.46035 15.7325Z" fill="#F7C100"/>
<path d="M18.8175 12.6432C19.2844 12.7692 19.3296 13.4141 18.8846 13.6039L15.3156 15.1267C14.9933 15.2642 14.6316 15.043 14.6072 14.6935L14.43 12.1594C14.4055 11.8099 14.7329 11.5406 15.0711 11.6319L18.8175 12.6432Z" fill="#FFEF8F"/>
</svg>
