<svg width="51" height="33" viewBox="0 0 51 33" fill="none" xmlns="http://www.w3.org/2000/svg">
<path d="M6.456 8.672C6.968 7.84 7.704 7.168 8.664 6.656C9.624 6.144 10.7227 5.888 11.96 5.888C13.432 5.888 14.7653 6.26133 15.96 7.008C17.1547 7.75467 18.0933 8.82133 18.776 10.208C19.48 11.5947 19.832 13.2053 19.832 15.04C19.832 16.8747 19.48 18.496 18.776 19.904C18.0933 21.2907 17.1547 22.368 15.96 23.136C14.7653 23.8827 13.432 24.256 11.96 24.256C10.7013 24.256 9.60267 24.0107 8.664 23.52C7.72533 23.008 6.98933 22.336 6.456 21.504V24H0.984V0.32H6.456V8.672ZM14.264 15.04C14.264 13.6747 13.88 12.608 13.112 11.84C12.3653 11.0507 11.4373 10.656 10.328 10.656C9.24 10.656 8.312 11.0507 7.544 11.84C6.79733 12.6293 6.424 13.7067 6.424 15.072C6.424 16.4373 6.79733 17.5147 7.544 18.304C8.312 19.0933 9.24 19.488 10.328 19.488C11.416 19.488 12.344 19.0933 13.112 18.304C13.88 17.4933 14.264 16.4053 14.264 15.04ZM28.1748 8.672C28.7081 7.84 29.4441 7.168 30.3828 6.656C31.3214 6.144 32.4201 5.888 33.6788 5.888C35.1508 5.888 36.4841 6.26133 37.6788 7.008C38.8734 7.75467 39.8121 8.82133 40.4948 10.208C41.1988 11.5947 41.5508 13.2053 41.5508 15.04C41.5508 16.8747 41.1988 18.496 40.4948 19.904C39.8121 21.2907 38.8734 22.368 37.6788 23.136C36.4841 23.8827 35.1508 24.256 33.6788 24.256C32.4414 24.256 31.3428 24 30.3828 23.488C29.4441 22.976 28.7081 22.3147 28.1748 21.504V32.512H22.7028V6.144H28.1748V8.672ZM35.9828 15.04C35.9828 13.6747 35.5988 12.608 34.8308 11.84C34.0841 11.0507 33.1561 10.656 32.0468 10.656C30.9588 10.656 30.0308 11.0507 29.2628 11.84C28.5161 12.6293 28.1428 13.7067 28.1428 15.072C28.1428 16.4373 28.5161 17.5147 29.2628 18.304C30.0308 19.0933 30.9588 19.488 32.0468 19.488C33.1348 19.488 34.0628 19.0933 34.8308 18.304C35.5988 17.4933 35.9828 16.4053 35.9828 15.04ZM46.9815 24.256C46.0215 24.256 45.2322 23.9787 44.6135 23.424C44.0162 22.848 43.7175 22.144 43.7175 21.312C43.7175 20.4587 44.0162 19.744 44.6135 19.168C45.2322 18.592 46.0215 18.304 46.9815 18.304C47.9202 18.304 48.6882 18.592 49.2855 19.168C49.9042 19.744 50.2135 20.4587 50.2135 21.312C50.2135 22.144 49.9042 22.848 49.2855 23.424C48.6882 23.9787 47.9202 24.256 46.9815 24.256Z" fill="#D7524C"/>
</svg>
