<svg width="21" height="26" viewBox="0 0 21 26" fill="none" xmlns="http://www.w3.org/2000/svg">
<g clip-path="url(#clip0_1118_295)">
<path d="M2.16797 9.94385H18.5524V23.5726C18.5524 24.6865 17.4509 25.4657 16.4006 25.0947L10.3602 22.9617L4.31971 25.0947C3.26941 25.4657 2.16797 24.6865 2.16797 23.5726V9.94385Z" fill="#AFAFAF"/>
<path d="M18.4975 16.2147C15.2752 20.7087 9.0199 21.7398 4.52583 18.5176C0.0317397 15.2954 -0.999316 9.04011 2.22289 4.54602C5.4451 0.0519429 11.7004 -0.979113 16.1944 2.2431C20.6886 5.46531 21.7196 11.7205 18.4975 16.2147Z" fill="#262F35"/>
<path d="M16.626 10.3804C16.626 13.841 13.8206 16.6465 10.3599 16.6465C6.89919 16.6465 4.09375 13.841 4.09375 10.3804C4.09375 6.91969 6.89919 4.11426 10.3599 4.11426C13.8206 4.11426 16.626 6.91969 16.626 10.3804Z" stroke="#AFAFAF" stroke-width="2.0317"/>
<path d="M12.751 7.15393C12.4359 6.83873 12.4359 6.32768 12.751 6.01248L14.1841 4.57936C14.4994 4.26416 15.0104 4.26416 15.3257 4.57936L16.7588 6.01248C17.0739 6.32768 17.0739 6.83873 16.7588 7.15393L15.3257 8.58704C15.0104 8.90224 14.4994 8.90224 14.1841 8.58704L12.751 7.15393Z" fill="white"/>
</g>
<defs>
<clipPath id="clip0_1118_295">
<rect width="21" height="25.4062" fill="white"/>
</clipPath>
</defs>
</svg>
