<svg width="23" height="25" viewBox="0 0 23 25" fill="none" xmlns="http://www.w3.org/2000/svg">
<path d="M11.5014 3.38181C9.3912 3.38181 5.79947 3.08532 5.72253 1.97627C5.71502 1.86462 5.77789 1.76047 5.88016 1.71449C7.13557 1.15809 8.47637 0.875671 9.86409 0.875671H13.1396C14.5292 0.875671 15.8691 1.15809 17.1235 1.71449C17.2258 1.75953 17.2887 1.86462 17.2812 1.97627C17.2033 3.08532 13.6116 3.38181 11.5014 3.38181Z" fill="#C6C6C6"/>
<path d="M5.50958 23.4187C5.44202 23.4187 5.3754 23.3934 5.32473 23.3446C5.2478 23.2705 5.22246 23.1569 5.26093 23.0575C5.94025 21.301 5.80889 20.6996 5.67096 20.4969C5.62217 20.4266 5.52928 20.3327 5.27595 20.3327C4.98696 20.3327 4.57693 20.4585 4.08996 20.6977C4.05243 20.7156 4.01302 20.7249 3.97268 20.7249C3.90981 20.7249 3.84789 20.7034 3.7991 20.6602C3.7184 20.5908 3.68744 20.48 3.71934 20.3778C3.87979 19.8739 4.0027 19.3203 4.08621 18.7311C2.89272 17.8669 1.89533 16.7326 1.19538 15.4434C0.776904 14.6759 0.465396 13.8605 0.267419 13.0207C0.238332 12.895 0.303073 12.7665 0.421296 12.7158C0.455074 12.7008 0.490729 12.6942 0.526383 12.6942C0.613643 12.6942 0.698089 12.7374 0.748756 12.8143C0.940164 13.1042 1.14283 13.3885 1.35113 13.6597C1.39804 13.7216 1.44402 13.7807 1.49281 13.8389C1.58758 13.96 1.68234 14.0744 1.77805 14.1861C1.86624 14.2902 1.93568 14.37 1.99948 14.4394C2.07079 14.5192 2.14022 14.5961 2.21247 14.6712C2.21716 14.6759 2.22185 14.6815 2.22654 14.6871C2.23123 14.6918 2.23593 14.6965 2.24062 14.7012C2.30348 14.7687 2.37854 14.8476 2.45736 14.9226C2.46017 14.9254 2.46299 14.9283 2.4658 14.9311C2.54368 15.0127 2.62719 15.0915 2.69756 15.1581C2.76887 15.2285 2.84205 15.2961 2.9387 15.3824C3.02126 15.4565 3.10477 15.5278 3.18734 15.5982C3.24926 15.6517 3.31119 15.7033 3.37218 15.753C3.41534 15.7887 3.45475 15.8206 3.49416 15.8506C3.49697 15.8525 3.49885 15.8543 3.50166 15.8562C3.53544 15.8844 3.56922 15.9116 3.603 15.936C3.60581 15.9378 3.60863 15.9397 3.61144 15.9425C3.66492 15.9848 3.71934 16.026 3.77376 16.0645C3.77751 16.0673 3.78127 16.0701 3.78502 16.073C3.80191 16.087 3.81974 16.1002 3.83663 16.1114C3.84226 16.1152 3.84789 16.1189 3.85258 16.1227C3.93327 16.1837 3.9952 16.2278 4.05243 16.2662C4.05712 16.27 4.06275 16.2737 4.06744 16.2775C4.07964 16.2869 4.0909 16.2944 4.10216 16.301C4.10967 16.3056 4.11811 16.3103 4.12468 16.316C4.20725 16.376 4.28982 16.4295 4.36112 16.4745C4.45683 16.5383 4.54784 16.5937 4.64448 16.6528C4.74957 16.7166 4.84058 16.7701 4.92409 16.8161C4.9316 16.8198 4.9391 16.8245 4.94567 16.8292L5.15772 16.9446C5.19244 16.9634 5.22622 16.9812 5.26093 16.9981C5.26562 17 5.27032 17.0028 5.27595 17.0056C5.3557 17.0488 5.4317 17.0863 5.5077 17.121C5.51145 17.1229 5.51427 17.1238 5.51802 17.1257C5.58276 17.1576 5.6475 17.1886 5.71412 17.2176C5.76197 17.2402 5.80513 17.2599 5.84829 17.2768C5.85392 17.2786 5.85861 17.2815 5.86424 17.2833C5.88113 17.2908 5.89802 17.2983 5.91491 17.3058L5.944 17.319C6.0078 17.3462 6.07536 17.3743 6.14197 17.4016L6.19077 17.4203C6.26395 17.4485 6.3362 17.4766 6.40751 17.5029C6.48069 17.5301 6.54919 17.5526 6.61956 17.5761C6.68618 17.5995 6.75655 17.6239 6.82504 17.6436C6.90479 17.669 6.9761 17.6915 7.04929 17.7112C7.24445 17.7684 7.44806 17.8191 7.66105 17.8641C7.96599 17.9307 8.27749 17.9814 8.58806 18.0142C8.67908 18.0264 8.76446 18.034 8.84797 18.0386C8.85923 18.0396 8.87049 18.0405 8.88081 18.0424C8.88831 18.0424 8.90145 18.0433 8.90896 18.0443C8.96901 18.049 9.02906 18.0518 9.08817 18.0555C9.09098 18.0555 9.10224 18.0565 9.10506 18.0565C9.14071 18.0593 9.17918 18.0612 9.21483 18.0621L9.22985 18.063C9.25987 18.064 9.28896 18.0659 9.31804 18.0659C9.32086 18.0659 9.32461 18.0659 9.32743 18.0659C9.41844 18.0696 9.51039 18.0705 9.60141 18.0705H13.6285C13.727 18.0705 13.8237 18.0687 13.9203 18.0659C13.9222 18.0659 14.0423 18.0612 14.0423 18.0612C14.0545 18.0602 14.0676 18.0602 14.0798 18.0593C14.0873 18.0583 14.0958 18.0574 14.1033 18.0574C14.1511 18.0555 14.198 18.0546 14.2459 18.0499C14.35 18.0424 14.4467 18.0358 14.5433 18.0264C14.7263 18.0077 14.9102 17.9842 15.0894 17.9561C15.384 17.9082 15.6833 17.8444 15.9779 17.7656C16.0558 17.7478 16.1252 17.7271 16.1994 17.7056L16.2181 17.6999C16.2988 17.6774 16.3767 17.653 16.4536 17.6277C16.5409 17.5995 16.6272 17.5714 16.7126 17.5404C16.7708 17.5207 16.8196 17.5038 16.8693 17.4841C16.874 17.4822 16.8787 17.4804 16.8834 17.4794C16.934 17.4616 16.9847 17.4428 17.0354 17.4222C17.1283 17.3856 17.2183 17.349 17.3065 17.3115C17.4848 17.2336 17.6284 17.1679 17.7588 17.1041C17.8226 17.0741 17.8817 17.0441 17.9389 17.015C17.9727 16.9981 18.0046 16.9821 18.0356 16.9653L18.0956 16.9334C18.1463 16.9061 18.197 16.8799 18.2467 16.8517C18.3302 16.8057 18.4109 16.7598 18.4906 16.7119C18.562 16.6697 18.6304 16.6284 18.6971 16.5871C18.7627 16.5477 18.8237 16.5083 18.8857 16.467C18.9363 16.4351 18.9795 16.4079 19.0236 16.377C19.0808 16.3385 19.1296 16.3047 19.1784 16.2709C19.2375 16.2306 19.2957 16.1893 19.3576 16.1424C19.3604 16.1405 19.3632 16.1386 19.3661 16.1368C19.4317 16.0908 19.4974 16.042 19.5612 15.9923C19.6166 15.951 19.6672 15.9116 19.7179 15.8703C19.7733 15.8271 19.8258 15.784 19.8784 15.7417C19.9469 15.6864 20.0088 15.6338 20.0735 15.5794C20.1186 15.5409 20.1664 15.4978 20.2133 15.4556C20.2143 15.4546 20.2199 15.4499 20.2208 15.449C20.2677 15.4087 20.3156 15.3655 20.3625 15.3223C20.4282 15.2642 20.4882 15.2079 20.5473 15.1506C20.6083 15.0925 20.6665 15.0362 20.7247 14.978C20.78 14.9245 20.8316 14.8729 20.8823 14.8185C21.1798 14.5145 21.4753 14.1786 21.7634 13.8173C21.8675 13.6869 21.9773 13.5415 22.1086 13.3613C22.1602 13.291 22.2409 13.2516 22.3235 13.2516C22.3629 13.2516 22.4042 13.2609 22.4417 13.2797C22.5581 13.3369 22.6153 13.4702 22.5778 13.595C22.3423 14.3775 22.0073 15.13 21.5813 15.8337C21.1704 16.5158 20.675 17.1482 20.1101 17.7131C18.2476 19.5755 15.7715 20.6011 13.1368 20.6011H9.86131C9.67928 20.6011 9.49257 20.5955 9.30209 20.5851C8.20712 22.0695 6.69837 22.9336 5.61279 23.4C5.58088 23.4112 5.54523 23.4187 5.50958 23.4187Z" fill="#C6C6C6"/>
<path d="M9.60515 18.6026C9.5085 18.6026 9.4128 18.6007 9.31616 18.5979C9.28144 18.5979 9.24579 18.596 9.20919 18.5951H9.19981C9.15196 18.5932 9.10692 18.5913 9.06376 18.5876C9.0009 18.5838 8.93897 18.581 8.87705 18.5763C8.85265 18.5754 8.82732 18.5735 8.80198 18.5697C8.71191 18.5632 8.62183 18.5538 8.53082 18.5444C8.20242 18.5097 7.87215 18.4553 7.54938 18.3849C7.32513 18.337 7.10839 18.2826 6.90666 18.2244C6.82785 18.2019 6.74997 18.1785 6.67209 18.1541C6.59609 18.1325 6.51634 18.1043 6.44878 18.0809C6.37935 18.0584 6.30335 18.0321 6.22923 18.0049C6.15229 17.9777 6.07535 17.9476 5.99841 17.9176L5.94774 17.8979C5.87456 17.8688 5.80419 17.8388 5.73381 17.8088L5.70567 17.7966C5.68596 17.7881 5.66626 17.7797 5.64656 17.7703C5.59589 17.7506 5.54522 17.7272 5.49549 17.7037C5.42794 17.6737 5.35663 17.6408 5.28532 17.6052C5.20087 17.5676 5.11737 17.5254 5.03011 17.4785C4.98882 17.4588 4.94848 17.4372 4.90719 17.4147L4.67169 17.2862C4.66324 17.2815 4.65573 17.2768 4.64729 17.2711C4.56284 17.2242 4.47183 17.1708 4.36956 17.1088C4.27104 17.0488 4.17158 16.9869 4.07494 16.923C3.99613 16.8733 3.91074 16.8161 3.82442 16.7551C3.79909 16.7401 3.77563 16.7232 3.75124 16.7054C3.68837 16.6631 3.62175 16.6153 3.53918 16.5534C3.51291 16.5355 3.48758 16.5158 3.46131 16.4961C3.40219 16.4539 3.34308 16.4098 3.28585 16.3638C3.24644 16.3348 3.20797 16.3038 3.16856 16.2709C3.12353 16.2362 3.07849 16.2006 3.03345 16.163C2.97153 16.1124 2.90491 16.057 2.83923 16.0007C2.75385 15.9275 2.66846 15.8544 2.58308 15.7774C2.49676 15.6986 2.41325 15.6217 2.33068 15.5428C2.24811 15.4659 2.16367 15.3833 2.08204 15.2998C2.00885 15.2285 1.93285 15.1506 1.85873 15.0718C1.84278 15.0568 1.82964 15.0427 1.81932 15.0296C1.74613 14.9527 1.67389 14.8739 1.60352 14.795C1.5369 14.7228 1.46278 14.6374 1.37176 14.5304C1.27231 14.415 1.17191 14.294 1.07714 14.172C1.02835 14.112 0.977686 14.0472 0.928896 13.9844C0.712154 13.7019 0.501041 13.4073 0.303065 13.1061C0.286176 13.0799 0.273977 13.0517 0.26647 13.0217C0.089136 12.2795 0 11.5111 0 10.7379C0 8.10511 1.02554 5.62806 2.88802 3.76464C3.75593 2.89674 4.7627 2.2071 5.87925 1.71544C5.91303 1.70043 5.94962 1.69293 5.98621 1.69293C6.03406 1.69293 6.08192 1.70606 6.12414 1.7314C6.19826 1.77643 6.24611 1.85431 6.25174 1.94063C6.25268 1.94345 6.36621 2.24745 7.72672 2.52706C8.74287 2.73629 10.0827 2.8517 11.5005 2.8517C12.9173 2.8517 14.2581 2.73629 15.2742 2.52706C16.6347 2.24745 16.7483 1.94251 16.7492 1.93969C16.7548 1.85337 16.8027 1.77549 16.8768 1.73046C16.919 1.70512 16.9659 1.69199 17.0138 1.69199C17.0504 1.69199 17.087 1.69949 17.1217 1.71451C20.6928 3.29269 23 6.83375 23 10.737C23 11.7109 22.8583 12.6717 22.5797 13.5931C22.5712 13.6213 22.5581 13.6485 22.5402 13.6729C22.4042 13.8605 22.2897 14.0106 22.1809 14.1476C21.8806 14.5229 21.5738 14.8729 21.267 15.1854C21.2145 15.2417 21.1563 15.2989 21.0981 15.3552C21.039 15.4143 20.9771 15.4743 20.9151 15.5325C20.8532 15.5926 20.7866 15.6536 20.72 15.7127C20.6721 15.7577 20.6196 15.8046 20.567 15.8497C20.5173 15.8947 20.4676 15.9388 20.4179 15.982C20.3494 16.0401 20.2846 16.0936 20.218 16.148C20.1589 16.1968 20.1035 16.2409 20.0482 16.2841C19.9956 16.3263 19.9403 16.3695 19.883 16.4126C19.8164 16.4633 19.7461 16.5168 19.6757 16.5665C19.6072 16.6181 19.5434 16.6641 19.4786 16.7072C19.4289 16.741 19.3782 16.7767 19.3266 16.8114C19.2769 16.8452 19.2262 16.879 19.1737 16.9118C19.1108 16.9531 19.0452 16.9962 18.9767 17.0375C18.9091 17.0797 18.8359 17.1238 18.7637 17.167C18.6811 17.2167 18.5938 17.2665 18.5066 17.3152C18.4559 17.3443 18.4015 17.3725 18.348 17.4016L18.2917 17.4316C18.2561 17.4513 18.2195 17.4701 18.1819 17.4888C18.1219 17.5198 18.0572 17.5517 17.9924 17.5827C17.8592 17.6493 17.7072 17.7187 17.5205 17.7994C17.4266 17.8407 17.33 17.8792 17.2343 17.9167C17.1808 17.9383 17.1236 17.9598 17.0663 17.9796C17.0147 18.0002 16.9603 18.0199 16.8918 18.0424C16.8064 18.0734 16.7135 18.1043 16.6188 18.1344C16.5343 18.1616 16.4499 18.1878 16.3664 18.2113C16.2838 18.2357 16.2003 18.2582 16.114 18.2798C15.8062 18.3624 15.4891 18.4299 15.1757 18.4806C14.9852 18.5106 14.7919 18.535 14.5996 18.5547C14.4973 18.565 14.3951 18.5725 14.2928 18.5791C14.244 18.5838 14.1886 18.5857 14.1323 18.5876C14.1108 18.5894 14.0882 18.5904 14.0657 18.5913C14.0657 18.5913 13.9437 18.596 13.9381 18.596C13.8377 18.5998 13.7345 18.6007 13.6304 18.6007H9.60515V18.6026Z" fill="#C6C6C6"/>
<path d="M2.61032 24.1243C2.33353 24.1243 2.10928 24.0924 1.94227 24.0286C1.78088 23.9676 1.66548 23.8222 1.64202 23.6505C1.61856 23.4778 1.69175 23.3071 1.83249 23.2048C2.68257 22.5865 3.31778 21.6351 3.71843 20.3778C3.74001 20.3083 3.78974 20.252 3.85448 20.2201C4.4212 19.9415 4.89972 19.8007 5.27409 19.8007C5.73948 19.8007 5.98437 20.0156 6.10822 20.1967C6.46477 20.7165 6.34936 21.7157 5.75637 23.2498C5.73103 23.3164 5.67943 23.3699 5.61375 23.3981C4.55443 23.8522 3.43131 24.1243 2.61032 24.1243Z" fill="#C6C6C6"/>
<path d="M17.0147 1.95751C16.9696 2.59835 14.517 3.11628 11.5014 3.11628C8.48573 3.11628 6.03214 2.59929 5.98804 1.95751C7.17402 1.43114 8.48573 1.14121 9.86406 1.14121H13.1396C14.5189 1.14027 15.8306 1.43114 17.0147 1.95751Z" fill="#EDEDED"/>
<path d="M22.3254 13.5152C22.0936 14.2865 21.7652 15.0174 21.3561 15.6929C20.9536 16.3601 20.4723 16.9737 19.9243 17.5216C18.1885 19.2575 15.7893 20.3318 13.1387 20.3318H9.86317C9.63141 20.3318 9.4006 20.3233 9.17353 20.3074C8.21461 21.6651 6.82221 22.5883 5.50956 23.1522C6.91228 19.5258 5.27968 19.8157 3.97266 20.4575C4.16501 19.8523 4.29261 19.2237 4.37143 18.6063C3.15261 17.7534 2.14208 16.6284 1.42899 15.3148C1.03022 14.583 0.722467 13.792 0.526367 12.9588C0.722467 13.2562 0.927013 13.5433 1.14 13.8201C1.18785 13.8839 1.23664 13.9459 1.28825 14.0078C1.38114 14.126 1.47684 14.2433 1.57724 14.3587C1.65136 14.446 1.72643 14.5342 1.8043 14.6186C1.87467 14.6974 1.94692 14.7772 2.02104 14.8541C2.02761 14.8626 2.03606 14.8729 2.04638 14.8813C2.1205 14.9601 2.19463 15.038 2.27344 15.1131C2.35038 15.1938 2.43295 15.2726 2.51552 15.3505C2.59621 15.4293 2.67878 15.5053 2.76135 15.5794C2.84579 15.6554 2.93024 15.7277 3.01374 15.799C3.07754 15.8543 3.14135 15.9069 3.20421 15.9585C3.24737 15.9941 3.29053 16.0288 3.33276 16.0617C3.37029 16.0926 3.40876 16.1236 3.44629 16.1508C3.50258 16.1959 3.5617 16.24 3.61987 16.2812C3.64426 16.3 3.66772 16.3188 3.69212 16.3347C3.76249 16.3882 3.83286 16.4398 3.90511 16.4877C3.92762 16.5046 3.94827 16.5186 3.96891 16.5308C4.05148 16.5909 4.13592 16.6462 4.21943 16.6997C4.31419 16.7635 4.4099 16.8217 4.50654 16.8799C4.60318 16.938 4.69889 16.9953 4.79553 17.0488C4.79741 17.0506 4.79928 17.0525 4.79928 17.0525C4.86778 17.09 4.93815 17.1285 5.00758 17.166C5.05543 17.1914 5.10235 17.2176 5.1502 17.2402C5.23277 17.2852 5.31534 17.3265 5.39978 17.364C5.46828 17.3987 5.53771 17.4306 5.60808 17.4616C5.65593 17.4841 5.70472 17.5066 5.75257 17.5254C5.78166 17.5395 5.81075 17.5507 5.8389 17.5629C5.90739 17.592 5.97682 17.6211 6.04532 17.6493C6.13821 17.6849 6.22922 17.7215 6.32023 17.7543C6.39436 17.7815 6.4666 17.8059 6.53979 17.8303C6.61204 17.8557 6.68241 17.8801 6.75465 17.9007C6.83066 17.9251 6.90572 17.9486 6.98359 17.9692C7.19001 18.0293 7.39925 18.0809 7.60943 18.1259C7.92375 18.1944 8.24182 18.246 8.56365 18.2807C8.65466 18.2929 8.74568 18.3014 8.83669 18.306C8.85546 18.3098 8.87422 18.3107 8.89205 18.3107C8.95773 18.3154 9.02247 18.3192 9.08815 18.3229C9.12944 18.3267 9.1726 18.3276 9.21388 18.3295C9.25141 18.3314 9.288 18.3333 9.32366 18.3333C9.41842 18.337 9.51319 18.3379 9.60702 18.3379H13.6341C13.7354 18.3379 13.8349 18.3361 13.9353 18.3333H13.9419C13.9709 18.3314 14 18.3314 14.0291 18.3295C14.0582 18.3276 14.0873 18.3276 14.1164 18.3248C14.1699 18.3229 14.2233 18.3211 14.2759 18.3164C14.3753 18.3098 14.4748 18.3023 14.5752 18.292C14.7629 18.2732 14.9496 18.2488 15.1353 18.2197C15.445 18.17 15.749 18.1043 16.0511 18.0236C16.1337 18.0049 16.2144 17.9805 16.2969 17.957C16.3776 17.9345 16.4583 17.9092 16.539 17.8829C16.63 17.8538 16.7192 17.8247 16.8092 17.7919C16.8655 17.7731 16.919 17.7543 16.9744 17.7318C17.0297 17.7131 17.0842 17.6924 17.1395 17.6699C17.2324 17.6342 17.3253 17.5958 17.4163 17.5564C17.5711 17.4897 17.7278 17.4184 17.8808 17.3434C17.9427 17.3143 18.0046 17.2833 18.0647 17.2524C18.0994 17.2355 18.1331 17.2176 18.1679 17.1989C18.2382 17.1613 18.3105 17.1229 18.3809 17.0835C18.4653 17.0375 18.5497 16.9887 18.6314 16.939C18.7017 16.8977 18.7721 16.8545 18.8406 16.8114C18.9063 16.772 18.9692 16.7307 19.0348 16.6875C19.0846 16.6566 19.1324 16.6256 19.1812 16.5909C19.2328 16.5562 19.2825 16.5224 19.3323 16.4877C19.3961 16.4445 19.458 16.4004 19.5218 16.3516C19.5903 16.3038 19.6597 16.2522 19.7263 16.2005C19.7817 16.1593 19.8342 16.118 19.8877 16.0748C19.9431 16.0317 19.9975 15.9876 20.0529 15.9425C20.1185 15.889 20.1814 15.8356 20.2471 15.7811C20.2968 15.738 20.3465 15.6939 20.3963 15.6488C20.446 15.6057 20.4957 15.5616 20.5455 15.5147C20.6093 15.4584 20.6731 15.3993 20.735 15.3392C20.795 15.2829 20.8551 15.2238 20.9151 15.1638C20.9705 15.1103 21.0249 15.0559 21.0784 14.9986C21.3908 14.6787 21.6883 14.339 21.9735 13.9815C22.0936 13.8305 22.2109 13.6738 22.3254 13.5152Z" fill="url(#paint0_linear_183_67)"/>
<path d="M22.7344 10.736C22.7344 11.7034 22.5918 12.6351 22.3253 13.5152C22.2099 13.6738 22.0936 13.8295 21.9726 13.9806C21.6873 14.3381 21.3899 14.6787 21.0774 14.9977C21.024 15.054 20.9695 15.1093 20.9142 15.1628C20.8541 15.2229 20.7941 15.281 20.734 15.3383C20.6721 15.3983 20.6083 15.4565 20.5445 15.5137C20.4948 15.5597 20.445 15.6048 20.3953 15.6479C20.3456 15.693 20.2959 15.7371 20.2461 15.7802C20.1804 15.8356 20.1176 15.8881 20.0519 15.9416C19.9965 15.9866 19.9421 16.0307 19.8868 16.0739C19.8333 16.1171 19.7798 16.1583 19.7254 16.1996C19.6588 16.2512 19.5893 16.3028 19.5208 16.3507C19.457 16.3985 19.3951 16.4436 19.3313 16.4867C19.2816 16.5215 19.2318 16.5552 19.1802 16.5899C19.1324 16.6228 19.0836 16.6556 19.0339 16.6866C18.9682 16.7297 18.9053 16.771 18.8396 16.8104C18.7712 16.8536 18.7008 16.8968 18.6304 16.938C18.5478 16.9878 18.4634 17.0356 18.3799 17.0825C18.3095 17.1219 18.2373 17.1595 18.1669 17.1979C18.1322 17.2167 18.0984 17.2336 18.0637 17.2514C18.0036 17.2824 17.9417 17.3134 17.8798 17.3424C17.7268 17.4184 17.5702 17.4888 17.4153 17.5554C17.3243 17.5948 17.2314 17.6324 17.1385 17.669C17.0832 17.6915 17.0288 17.7121 16.9734 17.7309C16.9181 17.7534 16.8655 17.7722 16.8083 17.7909C16.7191 17.8238 16.6291 17.8529 16.5381 17.882C16.4574 17.9073 16.3767 17.9336 16.296 17.9561C16.2134 17.9805 16.1327 18.0021 16.0501 18.0227C15.748 18.1034 15.4431 18.1691 15.1344 18.2188C14.9486 18.2479 14.761 18.2723 14.5742 18.291C14.4748 18.3014 14.3753 18.3079 14.2749 18.3154C14.2214 18.3201 14.168 18.322 14.1154 18.3239C14.0863 18.3276 14.0572 18.3276 14.0282 18.3286C13.9991 18.3295 13.97 18.3304 13.9409 18.3323H13.9343C13.8349 18.3361 13.7354 18.337 13.6331 18.337H9.60606C9.51129 18.337 9.41653 18.3351 9.3227 18.3323C9.28704 18.3323 9.25045 18.3305 9.21292 18.3286C9.17163 18.3267 9.12847 18.3248 9.08719 18.322C9.02151 18.3183 8.95677 18.3154 8.89109 18.3098C8.8742 18.3098 8.85544 18.3079 8.83573 18.3051C8.74472 18.2985 8.65371 18.2901 8.56269 18.2798C8.24086 18.2451 7.92372 18.1935 7.60846 18.125C7.39923 18.0799 7.18905 18.0283 6.98263 17.9683C6.90569 17.9458 6.82969 17.9232 6.75369 17.8998C6.68145 17.8791 6.61107 17.8547 6.53883 17.8294C6.4647 17.805 6.39058 17.7797 6.31927 17.7534C6.22826 17.7206 6.13724 17.6849 6.04435 17.6483C5.97586 17.6211 5.90643 17.592 5.83793 17.562C5.81072 17.5498 5.78164 17.5376 5.75161 17.5245C5.70376 17.5057 5.65497 17.4832 5.60712 17.4607C5.53675 17.4297 5.46825 17.3969 5.39882 17.3631C5.31438 17.3256 5.23181 17.2843 5.14924 17.2392C5.10139 17.2167 5.05447 17.1914 5.00662 17.1651C4.93813 17.1276 4.86775 17.0891 4.79832 17.0516C4.79832 17.0516 4.79645 17.0497 4.79457 17.0478C4.69793 16.9943 4.60222 16.938 4.50558 16.8789C4.40894 16.8208 4.31323 16.7607 4.21847 16.6988C4.13402 16.6453 4.04958 16.589 3.96795 16.5299C3.9473 16.5177 3.92666 16.5046 3.90414 16.4867C3.8319 16.4389 3.76152 16.3873 3.69115 16.3338C3.66676 16.3188 3.6433 16.2991 3.61891 16.2803C3.56073 16.239 3.50162 16.194 3.44533 16.1499C3.40779 16.1227 3.36933 16.0917 3.33179 16.0608C3.28863 16.0279 3.24547 15.9941 3.20325 15.9575C3.13945 15.9059 3.07564 15.8525 3.01278 15.798C2.92833 15.7258 2.84389 15.6535 2.76038 15.5785C2.67781 15.5025 2.59525 15.4274 2.51455 15.3495C2.43199 15.2726 2.35129 15.1928 2.27248 15.1122C2.19554 15.0362 2.11954 14.9592 2.04542 14.8804C2.03509 14.872 2.02665 14.8616 2.02008 14.8532C1.94596 14.7763 1.87371 14.6965 1.80334 14.6177C1.7264 14.5332 1.6504 14.446 1.57628 14.3578C1.47682 14.2424 1.38018 14.126 1.28729 14.0069C1.23756 13.9449 1.18783 13.8811 1.13904 13.8192C0.92605 13.5424 0.721506 13.2553 0.525406 12.9579C0.355578 12.2448 0.265503 11.5007 0.265503 10.7351C0.265503 8.08446 1.33983 5.68716 3.07564 3.94947C3.9079 3.11722 4.89215 2.43696 5.98524 1.95563C6.03028 2.59647 8.48294 3.1144 11.4986 3.1144C14.5142 3.1144 16.9678 2.59741 17.0119 1.95563C20.3841 3.44561 22.7344 6.8159 22.7344 10.736Z" fill="url(#paint1_radial_183_67)"/>
<path d="M5.50962 23.1523C3.98211 23.809 2.55874 23.9789 2.038 23.78C1.88318 23.7218 1.85785 23.5154 1.99015 23.4187C2.98566 22.6953 3.60211 21.621 3.97366 20.4575C5.27975 19.8167 6.91235 19.5258 5.50962 23.1523Z" fill="url(#paint2_linear_183_67)"/>
<path d="M18.1332 3.11533C18.1332 3.11533 18.8275 3.48313 19.1043 3.85187" stroke="white" stroke-miterlimit="10" stroke-linecap="round"/>
<path d="M17.8593 2.96359C17.9085 2.87833 17.8367 2.74473 17.699 2.66518C17.5612 2.58564 17.4096 2.59028 17.3604 2.67554C17.3111 2.76081 17.3829 2.89441 17.5207 2.97395C17.6585 3.05349 17.8101 3.04886 17.8593 2.96359Z" fill="white"/>
<path d="M7.76239 11.6349C8.26556 11.6349 8.67345 11.227 8.67345 10.7238C8.67345 10.2207 8.26556 9.81277 7.76239 9.81277C7.25922 9.81277 6.85132 10.2207 6.85132 10.7238C6.85132 11.227 7.25922 11.6349 7.76239 11.6349Z" fill="#4F4F4F"/>
<path d="M11.5014 11.6349C12.0046 11.6349 12.4125 11.227 12.4125 10.7238C12.4125 10.2207 12.0046 9.81277 11.5014 9.81277C10.9982 9.81277 10.5903 10.2207 10.5903 10.7238C10.5903 11.227 10.9982 11.6349 11.5014 11.6349Z" fill="#4F4F4F"/>
<path d="M15.2404 11.6349C15.7436 11.6349 16.1515 11.227 16.1515 10.7238C16.1515 10.2207 15.7436 9.81277 15.2404 9.81277C14.7372 9.81277 14.3293 10.2207 14.3293 10.7238C14.3293 11.227 14.7372 11.6349 15.2404 11.6349Z" fill="#4F4F4F"/>
<defs>
<linearGradient id="paint0_linear_183_67" x1="5.17441" y1="26.82" x2="10.572" y2="15.1911" gradientUnits="userSpaceOnUse">
<stop offset="0.3281" stop-color="#C6C6C6"/>
<stop offset="0.5492" stop-color="#D3D3D3"/>
<stop offset="0.6446" stop-color="#DADADA"/>
</linearGradient>
<radialGradient id="paint1_radial_183_67" cx="0" cy="0" r="1" gradientUnits="userSpaceOnUse" gradientTransform="translate(11.5011 10.1469) scale(17.1512)">
<stop offset="0.1825" stop-color="#EDEDED"/>
<stop offset="0.5832" stop-color="#E0E0E0"/>
<stop offset="0.7326" stop-color="#DADADA"/>
</radialGradient>
<linearGradient id="paint2_linear_183_67" x1="2.07564" y1="24.6647" x2="5.41532" y2="21.0822" gradientUnits="userSpaceOnUse">
<stop offset="0.2561" stop-color="#DADADA"/>
<stop offset="0.9383" stop-color="#EDEDED"/>
</linearGradient>
</defs>
</svg>
