<svg width="21" height="22" viewBox="0 0 21 22" fill="none" xmlns="http://www.w3.org/2000/svg">
<path d="M8.76007 0.602781C9.4886 -0.200927 10.883 -0.200927 11.6115 0.602781L18.1887 7.85806C19.5558 9.31884 20.3716 11.163 20.3716 13.1678C20.3716 17.9076 15.8113 21.75 10.1858 21.75C4.56032 21.75 0 17.9076 0 13.1678C0 12.8353 0.0224379 12.5073 0.066101 12.1847L0.0431391 4.95516C0.0397535 3.89153 0.701646 3.1069 1.83311 3.27374C2.0586 3.30698 2.53525 3.43264 2.74882 3.53267L5.10405 4.63575L8.76007 0.602781Z" fill="#FF9600"/>
<path d="M10.9636 9.32679C10.5587 8.90018 9.73479 8.90018 9.32987 9.32679L6.42222 12.3902C6.39501 12.4188 6.37373 12.4487 6.35793 12.4793C5.6647 13.1127 5.24902 13.9213 5.24902 14.8023C5.24902 16.8336 7.45927 18.4804 10.1858 18.4804C12.9123 18.4804 15.1226 16.8336 15.1226 14.8023C15.1226 13.8077 14.5928 12.9054 13.7319 12.2433L10.9636 9.32679Z" fill="#FFC800"/>
</svg>
