<svg width="10" height="6" viewBox="0 0 10 6" fill="none" xmlns="http://www.w3.org/2000/svg">
<path fill-rule="evenodd" clip-rule="evenodd" d="M5.61828 5.36834C5.45421 5.53219 5.23182 5.62423 4.99994 5.62423C4.76807 5.62423 4.54567 5.53219 4.38161 5.36834L1.08111 2.069C0.917039 1.90485 0.824896 1.68225 0.824951 1.45017C0.825006 1.21809 0.917253 0.995529 1.0814 0.83146C1.24555 0.66739 1.46815 0.575247 1.70023 0.575302C1.93232 0.575357 2.15487 0.667604 2.31894 0.831751L4.99994 3.51275L7.68094 0.831751C7.8459 0.672284 8.06688 0.583983 8.29631 0.585868C8.52573 0.587752 8.74523 0.679671 8.90754 0.841828C9.06985 1.00398 9.16198 1.2234 9.16408 1.45282C9.16618 1.68225 9.07809 1.90332 8.91878 2.06842L5.61886 5.36892L5.61828 5.36834Z" fill="#CCD7DF"/>
</svg>
