<svg width="30" height="24" viewBox="0 0 30 24" fill="none" xmlns="http://www.w3.org/2000/svg">
<path d="M0.744629 8.41646C0.744629 11.1715 2.141 13.6075 4.27944 15.0849L13.3996 23.0421C14.483 23.9874 16.1017 23.9748 17.1703 23.0127L26.3424 14.7552C28.2275 13.2592 29.4322 10.9755 29.4322 8.41646C29.4322 3.91028 25.6963 0.257263 21.0877 0.257263C18.7327 0.257263 16.6056 1.21111 15.0884 2.74525C13.5712 1.21111 11.4441 0.257263 9.08918 0.257263C4.48061 0.257263 0.744629 3.91028 0.744629 8.41646Z" fill="#FF4B4B"/>
<path opacity="0.3" fill-rule="evenodd" clip-rule="evenodd" d="M8.75028 11.9336C10.5926 11.9336 12.0861 10.3961 12.0861 8.49937C12.0861 6.60267 10.5926 5.06517 8.75028 5.06517C6.90802 5.06517 5.41455 6.60267 5.41455 8.49937C5.41455 10.3961 6.90802 11.9336 8.75028 11.9336Z" fill="white"/>
</svg>
