<svg width="34" height="45" viewBox="0 0 34 45" fill="none" xmlns="http://www.w3.org/2000/svg">
<g clip-path="url(#clip0_868_448)">
<path fill-rule="evenodd" clip-rule="evenodd" d="M16.8236 0.5C10.0013 0.5 4.4707 6.0306 4.4707 12.8529V16.4044C1.96244 16.6413 0 18.7532 0 21.3235V37.5588C0 40.2877 2.21224 42.5 4.94118 42.5H28.7059C31.4348 42.5 33.6471 40.2877 33.6471 37.5588V21.3235C33.6471 18.7533 31.6847 16.6415 29.1766 16.4044V12.8529C29.1766 6.0306 23.646 0.5 16.8236 0.5ZM24.2354 16.3823V12.8529C24.2354 8.75954 20.917 5.44118 16.8236 5.44118C12.7302 5.44118 9.41188 8.75954 9.41188 12.8529V16.3823H24.2354Z" fill="url(#paint0_linear_868_448)"/>
<path fill-rule="evenodd" clip-rule="evenodd" d="M16.8236 0.5C10.0013 0.5 4.4707 6.0306 4.4707 12.8529V16.4044C1.96244 16.6413 0 18.7532 0 21.3235V37.5588C0 40.2877 2.21224 42.5 4.94118 42.5H28.7059C31.4348 42.5 33.6471 40.2877 33.6471 37.5588V21.3235C33.6471 18.7533 31.6847 16.6415 29.1766 16.4044V12.8529C29.1766 6.0306 23.646 0.5 16.8236 0.5ZM24.2354 16.3823V12.8529C24.2354 8.75954 20.917 5.44118 16.8236 5.44118C12.7302 5.44118 9.41188 8.75954 9.41188 12.8529V16.3823H24.2354Z" fill="url(#paint1_linear_868_448)"/>
<path d="M4.94118 41.4998C2.21224 41.4998 0 39.2875 0 36.5586V39.5586C0 42.2875 2.21224 44.4998 4.94118 44.4998H28.7059C31.4348 44.4998 33.6471 42.2875 33.6471 39.5586V36.5586C33.6471 39.2875 31.4348 41.4998 28.7059 41.4998H4.94118Z" fill="#65C6C9"/>
<path fill-rule="evenodd" clip-rule="evenodd" d="M18.5551 28.9721C19.9918 28.3653 21 26.9432 21 25.2856C21 23.0765 19.2091 21.2856 17 21.2856C14.7909 21.2856 13 23.0765 13 25.2856C13 26.9432 14.0082 28.3653 15.4449 28.9721L13 36.7142H21L18.5551 28.9721Z" fill="url(#paint2_linear_868_448)"/>
</g>
<defs>
<linearGradient id="paint0_linear_868_448" x1="16.8235" y1="0.5" x2="9.05882" y2="42.5" gradientUnits="userSpaceOnUse">
<stop offset="0.0204316" stop-color="#F7CD58"/>
<stop offset="0.982597" stop-color="#F5B63F"/>
</linearGradient>
<linearGradient id="paint1_linear_868_448" x1="16.8235" y1="0.5" x2="7" y2="40" gradientUnits="userSpaceOnUse">
<stop stop-color="#65D2E5"/>
<stop offset="1" stop-color="#71D6D5"/>
</linearGradient>
<linearGradient id="paint2_linear_868_448" x1="17" y1="21.2856" x2="22.4286" y2="37.5714" gradientUnits="userSpaceOnUse">
<stop stop-color="#2E6954"/>
<stop offset="1" stop-color="#429083"/>
</linearGradient>
<clipPath id="clip0_868_448">
<rect width="34" height="44" fill="white" transform="translate(0 0.5)"/>
</clipPath>
</defs>
</svg>
