<svg width="162" height="35" viewBox="0 0 162 35" fill="none" xmlns="http://www.w3.org/2000/svg">
<path d="M6.456 10.672C6.968 9.84 7.704 9.168 8.664 8.656C9.624 8.144 10.7227 7.888 11.96 7.888C13.432 7.888 14.7653 8.26133 15.96 9.008C17.1547 9.75467 18.0933 10.8213 18.776 12.208C19.48 13.5947 19.832 15.2053 19.832 17.04C19.832 18.8747 19.48 20.496 18.776 21.904C18.0933 23.2907 17.1547 24.368 15.96 25.136C14.7653 25.8827 13.432 26.256 11.96 26.256C10.7013 26.256 9.60267 26.0107 8.664 25.52C7.72533 25.008 6.98933 24.336 6.456 23.504V26H0.984V2.32H6.456V10.672ZM14.264 17.04C14.264 15.6747 13.88 14.608 13.112 13.84C12.3653 13.0507 11.4373 12.656 10.328 12.656C9.24 12.656 8.312 13.0507 7.544 13.84C6.79733 14.6293 6.424 15.7067 6.424 17.072C6.424 18.4373 6.79733 19.5147 7.544 20.304C8.312 21.0933 9.24 21.488 10.328 21.488C11.416 21.488 12.344 21.0933 13.112 20.304C13.88 19.4933 14.264 18.4053 14.264 17.04ZM28.1748 2.32V26H22.7028V2.32H28.1748ZM34.8923 6.288C33.9323 6.288 33.1429 6.01067 32.5243 5.456C31.9269 4.88 31.6283 4.176 31.6283 3.344C31.6283 2.49067 31.9269 1.78667 32.5243 1.232C33.1429 0.655998 33.9323 0.367998 34.8923 0.367998C35.8309 0.367998 36.5989 0.655998 37.1963 1.232C37.8149 1.78667 38.1243 2.49067 38.1243 3.344C38.1243 4.176 37.8149 4.88 37.1963 5.456C36.5989 6.01067 35.8309 6.288 34.8923 6.288ZM37.6123 8.144V26H32.1403V8.144H37.6123ZM51.5298 21.36V26H48.7458C46.7618 26 45.2151 25.52 44.1058 24.56C42.9964 23.5787 42.4418 21.9893 42.4418 19.792V12.688H40.2658V8.144H42.4418V3.792H47.9138V8.144H51.4978V12.688H47.9138V19.856C47.9138 20.3893 48.0418 20.7733 48.2978 21.008C48.5538 21.2427 48.9804 21.36 49.5778 21.36H51.5298ZM59.6978 21.488H67.4418V26H53.5858V21.648L61.0098 12.656H53.6497V8.144H67.2818V12.496L59.6978 21.488ZM75.9248 10.672C76.4581 9.84 77.1941 9.168 78.1328 8.656C79.0714 8.144 80.1701 7.888 81.4288 7.888C82.9008 7.888 84.2341 8.26133 85.4288 9.008C86.6234 9.75467 87.5621 10.8213 88.2448 12.208C88.9488 13.5947 89.3008 15.2053 89.3008 17.04C89.3008 18.8747 88.9488 20.496 88.2448 21.904C87.5621 23.2907 86.6234 24.368 85.4288 25.136C84.2341 25.8827 82.9008 26.256 81.4288 26.256C80.1914 26.256 79.0928 26 78.1328 25.488C77.1941 24.976 76.4581 24.3147 75.9248 23.504V34.512H70.4528V8.144H75.9248V10.672ZM83.7328 17.04C83.7328 15.6747 83.3488 14.608 82.5808 13.84C81.8341 13.0507 80.9061 12.656 79.7968 12.656C78.7088 12.656 77.7808 13.0507 77.0128 13.84C76.2661 14.6293 75.8928 15.7067 75.8928 17.072C75.8928 18.4373 76.2661 19.5147 77.0128 20.304C77.7808 21.0933 78.7088 21.488 79.7968 21.488C80.8848 21.488 81.8128 21.0933 82.5808 20.304C83.3488 19.4933 83.7328 18.4053 83.7328 17.04ZM100.3 26.256C98.5502 26.256 96.9715 25.8827 95.5635 25.136C94.1768 24.3893 93.0782 23.3227 92.2675 21.936C91.4782 20.5493 91.0835 18.928 91.0835 17.072C91.0835 15.2373 91.4888 13.6267 92.2995 12.24C93.1102 10.832 94.2195 9.75467 95.6275 9.008C97.0355 8.26133 98.6142 7.888 100.364 7.888C102.113 7.888 103.692 8.26133 105.1 9.008C106.508 9.75467 107.617 10.832 108.428 12.24C109.238 13.6267 109.644 15.2373 109.644 17.072C109.644 18.9067 109.228 20.528 108.396 21.936C107.585 23.3227 106.465 24.3893 105.036 25.136C103.628 25.8827 102.049 26.256 100.3 26.256ZM100.3 21.52C101.345 21.52 102.23 21.136 102.956 20.368C103.702 19.6 104.076 18.5013 104.076 17.072C104.076 15.6427 103.713 14.544 102.988 13.776C102.284 13.008 101.409 12.624 100.364 12.624C99.2968 12.624 98.4115 13.008 97.7075 13.776C97.0035 14.5227 96.6515 15.6213 96.6515 17.072C96.6515 18.5013 96.9928 19.6 97.6755 20.368C98.3795 21.136 99.2542 21.52 100.3 21.52ZM123.427 7.952C125.517 7.952 127.181 8.63467 128.419 10C129.677 11.344 130.307 13.2 130.307 15.568V26H124.867V16.304C124.867 15.1093 124.557 14.1813 123.939 13.52C123.32 12.8587 122.488 12.528 121.443 12.528C120.397 12.528 119.565 12.8587 118.947 13.52C118.328 14.1813 118.019 15.1093 118.019 16.304V26H112.547V8.144H118.019V10.512C118.573 9.72267 119.32 9.104 120.259 8.656C121.197 8.18667 122.253 7.952 123.427 7.952ZM140.893 7.888C142.152 7.888 143.25 8.144 144.189 8.656C145.149 9.168 145.885 9.84 146.397 10.672V8.144H151.869V25.968C151.869 27.6107 151.538 29.0933 150.877 30.416C150.237 31.76 149.245 32.8267 147.901 33.616C146.578 34.4053 144.925 34.8 142.941 34.8C140.296 34.8 138.152 34.1707 136.509 32.912C134.866 31.6747 133.928 29.9893 133.693 27.856H139.101C139.272 28.5387 139.677 29.072 140.317 29.456C140.957 29.8613 141.746 30.064 142.685 30.064C143.816 30.064 144.712 29.7333 145.373 29.072C146.056 28.432 146.397 27.3973 146.397 25.968V23.44C145.864 24.272 145.128 24.9547 144.189 25.488C143.25 26 142.152 26.256 140.893 26.256C139.421 26.256 138.088 25.8827 136.893 25.136C135.698 24.368 134.749 23.2907 134.045 21.904C133.362 20.496 133.021 18.8747 133.021 17.04C133.021 15.2053 133.362 13.5947 134.045 12.208C134.749 10.8213 135.698 9.75467 136.893 9.008C138.088 8.26133 139.421 7.888 140.893 7.888ZM146.397 17.072C146.397 15.7067 146.013 14.6293 145.245 13.84C144.498 13.0507 143.581 12.656 142.493 12.656C141.405 12.656 140.477 13.0507 139.709 13.84C138.962 14.608 138.589 15.6747 138.589 17.04C138.589 18.4053 138.962 19.4933 139.709 20.304C140.477 21.0933 141.405 21.488 142.493 21.488C143.581 21.488 144.498 21.0933 145.245 20.304C146.013 19.5147 146.397 18.4373 146.397 17.072ZM158.388 26.256C157.428 26.256 156.638 25.9787 156.02 25.424C155.422 24.848 155.124 24.144 155.124 23.312C155.124 22.4587 155.422 21.744 156.02 21.168C156.638 20.592 157.428 20.304 158.388 20.304C159.326 20.304 160.094 20.592 160.692 21.168C161.31 21.744 161.62 22.4587 161.62 23.312C161.62 24.144 161.31 24.848 160.692 25.424C160.094 25.9787 159.326 26.256 158.388 26.256Z" fill="#D7524C"/>
</svg>
