<svg width="25" height="25" viewBox="0 0 25 25" fill="none" xmlns="http://www.w3.org/2000/svg">
<path d="M12.5 24C18.8513 24 24 18.8513 24 12.5C24 6.14873 18.8513 1 12.5 1C6.14873 1 1 6.14873 1 12.5C1 18.8513 6.14873 24 12.5 24Z" fill="#D7524C" stroke="#D7524C" stroke-width="1.3913"/>
<path d="M7.65791 13.7105C8.32647 13.7105 8.86844 13.1686 8.86844 12.5C8.86844 11.8315 8.32647 11.2895 7.65791 11.2895C6.98936 11.2895 6.44739 11.8315 6.44739 12.5C6.44739 13.1686 6.98936 13.7105 7.65791 13.7105Z" fill="white"/>
<path d="M12.5 13.7105C13.1685 13.7105 13.7105 13.1686 13.7105 12.5C13.7105 11.8315 13.1685 11.2895 12.5 11.2895C11.8314 11.2895 11.2894 11.8315 11.2894 12.5C11.2894 13.1686 11.8314 13.7105 12.5 13.7105Z" fill="white"/>
<path d="M17.3421 13.7105C18.0107 13.7105 18.5526 13.1686 18.5526 12.5C18.5526 11.8315 18.0107 11.2895 17.3421 11.2895C16.6736 11.2895 16.1316 11.8315 16.1316 12.5C16.1316 13.1686 16.6736 13.7105 17.3421 13.7105Z" fill="white"/>
</svg>
