<svg width="32" height="32" viewBox="0 0 32 32" fill="none" xmlns="http://www.w3.org/2000/svg">
<path d="M16 29.2174C23.2997 29.2174 29.2174 23.2997 29.2174 16C29.2174 8.70022 23.2997 2.78259 16 2.78259C8.70022 2.78259 2.78259 8.70022 2.78259 16C2.78259 23.2997 8.70022 29.2174 16 29.2174Z" fill="#CE82FF" stroke="#CE82FF" stroke-width="1.3913"/>
<path d="M10.4348 17.3913C11.2032 17.3913 11.8261 16.7684 11.8261 16C11.8261 15.2316 11.2032 14.6087 10.4348 14.6087C9.66637 14.6087 9.04346 15.2316 9.04346 16C9.04346 16.7684 9.66637 17.3913 10.4348 17.3913Z" fill="white"/>
<path d="M15.9999 17.3913C16.7683 17.3913 17.3913 16.7684 17.3913 16C17.3913 15.2316 16.7683 14.6087 15.9999 14.6087C15.2316 14.6087 14.6086 15.2316 14.6086 16C14.6086 16.7684 15.2316 17.3913 15.9999 17.3913Z" fill="white"/>
<path d="M21.5653 17.3913C22.3337 17.3913 22.9566 16.7684 22.9566 16C22.9566 15.2316 22.3337 14.6087 21.5653 14.6087C20.7969 14.6087 20.174 15.2316 20.174 16C20.174 16.7684 20.7969 17.3913 21.5653 17.3913Z" fill="white"/>
</svg>
