<svg width="35" height="34" viewBox="0 0 35 34" fill="none" xmlns="http://www.w3.org/2000/svg">
<path d="M17.5002 0.333313C8.31683 0.333313 0.833496 7.81665 0.833496 17C0.833496 26.1833 8.31683 33.6666 17.5002 33.6666C26.6835 33.6666 34.1668 26.1833 34.1668 17C34.1668 7.81665 26.6835 0.333313 17.5002 0.333313ZM24.1668 18.25H18.7502V23.6666C18.7502 24.35 18.1835 24.9166 17.5002 24.9166C16.8168 24.9166 16.2502 24.35 16.2502 23.6666V18.25H10.8335C10.1502 18.25 9.5835 17.6833 9.5835 17C9.5835 16.3166 10.1502 15.75 10.8335 15.75H16.2502V10.3333C16.2502 9.64998 16.8168 9.08331 17.5002 9.08331C18.1835 9.08331 18.7502 9.64998 18.7502 10.3333V15.75H24.1668C24.8502 15.75 25.4168 16.3166 25.4168 17C25.4168 17.6833 24.8502 18.25 24.1668 18.25Z" fill="#D7524C"/>
</svg>
