<svg width="26" height="26" viewBox="0 0 26 26" fill="none" xmlns="http://www.w3.org/2000/svg">
<path d="M20.6902 2.03723H5.30969V13.4901H20.6902V2.03723Z" fill="#915D46"/>
<path d="M3.1062 4.96252H22.8934" stroke="#724533" stroke-width="3" stroke-miterlimit="10"/>
<path d="M3.1062 9.03568H22.8934" stroke="#724533" stroke-width="3" stroke-miterlimit="10"/>
<path d="M26 1.68611V24.3139C26 25.245 25.2301 26 24.2806 26H1.7194C0.769881 26 0 25.245 0 24.3139V1.68611C0 1.63938 0.00244398 1.59384 0.00611008 1.5483C0.0769881 0.681875 0.817541 0 1.7194 0H3.51701C4.50686 0 5.30974 0.787332 5.30974 1.75802V13.0012H20.6903V1.75802C20.6903 0.787332 21.4931 0 22.483 0H24.2794C25.1812 0 25.9218 0.680676 25.9927 1.5483C25.9976 1.59384 26 1.63938 26 1.68611Z" fill="#FFD20D"/>
<path d="M23.64 8.35875C24.2063 8.35875 24.6653 7.9086 24.6653 7.35331C24.6653 6.79802 24.2063 6.34787 23.64 6.34787C23.0738 6.34787 22.6147 6.79802 22.6147 7.35331C22.6147 7.9086 23.0738 8.35875 23.64 8.35875Z" fill="#F9B104"/>
<path d="M23.64 15.8317C24.2063 15.8317 24.6653 15.3816 24.6653 14.8263C24.6653 14.271 24.2063 13.8209 23.64 13.8209C23.0738 13.8209 22.6147 14.271 22.6147 14.8263C22.6147 15.3816 23.0738 15.8317 23.64 15.8317Z" fill="#F9B104"/>
<path d="M23.64 24.5572C24.2063 24.5572 24.6653 24.1071 24.6653 23.5518C24.6653 22.9965 24.2063 22.5464 23.64 22.5464C23.0738 22.5464 22.6147 22.9965 22.6147 23.5518C22.6147 24.1071 23.0738 24.5572 23.64 24.5572Z" fill="#F9B104"/>
<path d="M2.35842 8.35869C2.92467 8.35869 3.3837 7.90853 3.3837 7.35325C3.3837 6.79796 2.92467 6.34781 2.35842 6.34781C1.79217 6.34781 1.33313 6.79796 1.33313 7.35325C1.33313 7.90853 1.79217 8.35869 2.35842 8.35869Z" fill="#F9B104"/>
<path d="M2.35842 15.8317C2.92467 15.8317 3.3837 15.3816 3.3837 14.8263C3.3837 14.271 2.92467 13.8209 2.35842 13.8209C1.79217 13.8209 1.33313 14.271 1.33313 14.8263C1.33313 15.3816 1.79217 15.8317 2.35842 15.8317Z" fill="#F9B104"/>
<path d="M2.35842 24.5572C2.92467 24.5572 3.3837 24.1071 3.3837 23.5518C3.3837 22.9965 2.92467 22.5464 2.35842 22.5464C1.79217 22.5464 1.33313 22.9965 1.33313 23.5518C1.33313 24.1071 1.79217 24.5572 2.35842 24.5572Z" fill="#F9B104"/>
<path d="M20.6902 18.008H5.30969V24.23H20.6902V18.008Z" fill="#603E32"/>
<path d="M5.30969 22.1808H20.6902" stroke="#492A21" stroke-width="3" stroke-miterlimit="10"/>
<path d="M14.6449 19.4916H11.3552C10.3727 19.4916 9.57715 18.7103 9.57715 17.748V12.8143C9.57715 11.8508 10.3739 11.0706 11.3552 11.0706H14.6449C15.6274 11.0706 16.423 11.852 16.423 12.8143V17.748C16.423 18.7103 15.6274 19.4916 14.6449 19.4916Z" fill="#FFC103"/>
<path d="M12.9999 15.8498C13.9401 15.8498 14.7022 15.1024 14.7022 14.1804C14.7022 13.2585 13.9401 12.5111 12.9999 12.5111C12.0597 12.5111 11.2976 13.2585 11.2976 14.1804C11.2976 15.1024 12.0597 15.8498 12.9999 15.8498Z" fill="#EA9D05"/>
<path d="M13.3094 17.9362H12.691C12.3281 17.9362 12.0336 17.6473 12.0336 17.2914V15.3572C12.0336 14.8336 12.4662 14.4093 13.0002 14.4093C13.5342 14.4093 13.9668 14.8336 13.9668 15.3572V17.2914C13.9668 17.6473 13.6723 17.9362 13.3094 17.9362Z" fill="#EA9D05"/>
</svg>
