<svg width="32" height="32" viewBox="0 0 32 32" fill="none" xmlns="http://www.w3.org/2000/svg">
<path d="M27.8261 25.0435V11.8261H4.17395V25.0435C4.17395 26.5803 5.38417 27.8261 6.87705 27.8261H25.123C26.6159 27.8261 27.8261 26.5803 27.8261 25.0435Z" fill="#A56644"/>
<path d="M2.78259 6.95653C2.78259 5.41974 4.02841 4.17392 5.5652 4.17392H11.8261V11.8261H2.78259V6.95653Z" fill="#EA2B2B"/>
<path d="M2.78259 11.8261H11.8261V12.1739C11.8261 14.6713 9.80165 16.6957 7.30433 16.6957C4.80704 16.6957 2.78259 14.6713 2.78259 12.1739V11.8261Z" fill="#FF4945"/>
<path d="M11.826 11.8261H20.1739V12.1739C20.1739 14.6713 18.3051 16.6957 16 16.6957C13.6948 16.6957 11.826 14.6713 11.826 12.1739V11.8261Z" fill="#D0D0D0"/>
<path d="M20.174 11.8261H29.2174V12.1739C29.2174 14.6713 27.193 16.6957 24.6957 16.6957C22.1984 16.6957 20.174 14.6713 20.174 12.1739V11.8261Z" fill="#FF4945"/>
<path d="M11.826 4.17392H20.1739V11.8261H11.826V4.17392Z" fill="#D0D0D0"/>
<path d="M20.174 4.17392H26.4348C27.9716 4.17392 29.2174 5.41974 29.2174 6.95653V11.8261H20.174V4.17392Z" fill="#EA2B2B"/>
<path d="M7.65222 20.8696C7.65222 20.1012 8.27511 19.4783 9.04353 19.4783H12.5218C13.2902 19.4783 13.9131 20.1012 13.9131 20.8696V27.8261H7.65222V20.8696Z" fill="#B9E8FF"/>
<path d="M16.6957 20.8696C16.6957 20.1012 17.3186 19.4783 18.087 19.4783H23.6522C24.4206 19.4783 25.0435 20.1012 25.0435 20.8696V23.6522C25.0435 24.4206 24.4206 25.0435 23.6522 25.0435H18.087C17.3186 25.0435 16.6957 24.4206 16.6957 23.6522V20.8696Z" fill="#B9E8FF"/>
</svg>
