<svg width="593" height="593" viewBox="0 0 593 593" fill="none" xmlns="http://www.w3.org/2000/svg">
<rect width="593" height="593" fill="#161D23"/>
<path d="M184 224.85C184 213.236 188.613 202.099 196.825 193.887C205.037 185.675 216.174 181.062 227.788 181.062H359.15C370.764 181.062 381.901 185.675 390.113 193.887C398.325 202.099 402.938 213.236 402.938 224.85V356.212C402.938 367.826 398.325 378.963 390.113 387.175C381.901 395.387 370.764 400 359.15 400H227.788C216.174 400 205.037 395.387 196.825 387.175C188.613 378.963 184 367.826 184 356.212V224.85Z" stroke="#2E3A45" stroke-width="14" stroke-linecap="round" stroke-linejoin="round"/>
<path d="M255.155 279.584C270.269 279.584 282.522 267.331 282.522 252.217C282.522 237.102 270.269 224.85 255.155 224.85C240.04 224.85 227.788 237.102 227.788 252.217C227.788 267.331 240.04 279.584 255.155 279.584Z" stroke="#2E3A45" stroke-width="14" stroke-linecap="round" stroke-linejoin="round"/>
<path d="M321.121 297.329L227.788 400H360.606C371.833 400 382.601 395.54 390.539 387.601C398.478 379.663 402.938 368.895 402.938 357.668V356.212C402.938 351.111 401.022 349.152 397.574 345.375L353.458 297.263C351.402 295.021 348.901 293.231 346.115 292.009C343.328 290.786 340.318 290.158 337.275 290.164C334.232 290.171 331.224 290.811 328.443 292.045C325.662 293.278 323.168 295.078 321.121 297.329Z" stroke="#2E3A45" stroke-width="14" stroke-linecap="round" stroke-linejoin="round"/>
<path d="M403.81 181.934H389.854V167.978C389.854 166.127 389.119 164.352 387.81 163.044C386.501 161.735 384.726 161 382.876 161C381.025 161 379.25 161.735 377.942 163.044C376.633 164.352 375.898 166.127 375.898 167.978L376.145 181.934H361.941C360.091 181.934 358.316 182.669 357.007 183.978C355.699 185.287 354.963 187.062 354.963 188.912C354.963 190.763 355.699 192.538 357.007 193.847C358.316 195.155 360.091 195.891 361.941 195.891L376.145 195.643L375.898 209.847C375.898 211.697 376.633 213.472 377.942 214.781C379.25 216.09 381.025 216.825 382.876 216.825C384.726 216.825 386.501 216.09 387.81 214.781C389.119 213.472 389.854 211.697 389.854 209.847V195.643L403.81 195.891C405.661 195.891 407.436 195.155 408.744 193.847C410.053 192.538 410.788 190.763 410.788 188.912C410.788 187.062 410.053 185.287 408.744 183.978C407.436 182.669 405.661 181.934 403.81 181.934Z" fill="#D7524C"/>
</svg>
